<svg width="226" height="189" viewBox="0 0 226 189" fill="none" xmlns="http://www.w3.org/2000/svg">
<path opacity="0.15" d="M43.9474 129.411C50.6881 133.039 59.3664 135.282 68.9873 135.693C68.9914 135.725 68.9938 135.758 68.998 135.79C71.939 158.361 104.298 172.753 141.273 167.935C176.489 163.346 203.191 142.987 203.112 121.56C218.02 114.551 227.338 103.214 225.843 91.7452C224.894 84.4597 219.739 78.3444 211.952 74.0938C216.002 67.8438 217.874 61.1007 216.991 54.3237C214.05 31.7526 181.691 17.3609 144.716 22.1788C121.27 25.2337 101.602 35.2797 91.0947 47.9759C82.0561 46.5799 72.1272 46.4316 61.8397 47.772C24.8642 52.59 -2.72612 74.7931 0.2149 97.3641C2.35908 113.82 20.1414 125.925 43.9474 129.411Z" fill="#002B38"/>
<circle opacity="0.87" cx="84.3779" cy="92.2809" r="26.1711" fill="white"/>
<circle cx="79.9932" cy="25.6202" r="5.54936" fill="#FFCD07"/>
<circle opacity="0.3" cx="28.3362" cy="142.294" r="5.54936" fill="#002B38"/>
<path d="M21.8372 106.441C23.0146 107.106 24.3391 107.467 25.691 107.491L21.8372 106.441Z" fill="#F5F6F7"/>
<path d="M21.8372 106.441C23.0146 107.106 24.3391 107.467 25.691 107.491" stroke="#3D3D3C" stroke-width="0.8" stroke-linecap="round" stroke-linejoin="round"/>
<path fill-rule="evenodd" clip-rule="evenodd" d="M86.4153 118.297C84.9766 120.863 83.9457 122.701 84.7067 123.718C86.3674 125.939 91.5796 115.818 93.4173 105.746C106.99 117.415 110.112 130.985 87.5417 139.377C92.7947 151.181 89.7772 159.863 82.6012 164.386C83.8811 158.551 82.1222 150.304 81.1332 150.832C78.901 152.022 78.6279 154.358 78.3143 157.04C77.8936 160.638 77.3999 164.859 72.0055 167.776C68.0056 168.16 63.6004 167.794 59.0596 166.61C66.6194 162.735 78.3515 151.157 73.7299 146.378C72.2273 144.824 71.0834 147.23 69.3931 150.786C66.7921 156.258 62.8972 164.451 54.4106 165.122C47.3117 162.426 40.112 157.726 33.8077 150.767C55.5306 162.114 68.3775 143.56 66.1001 141.386C65.4784 140.793 63.9009 141.816 61.5269 143.356C55.5181 147.254 44.4064 154.463 30.7759 147.147C27.9166 143.463 25.2999 139.254 23.0339 134.491C37.5217 146.92 58.7943 136.693 57.2664 134.406C56.8867 133.838 55.3403 134.481 52.9814 135.463C46.4665 138.173 33.7544 143.461 22.3093 132.924C21.0295 130.069 18.9974 124.879 17.9875 121.638C45.9424 133.824 54.1744 126.581 49.0031 122.592C47.0664 121.098 43.1271 121.407 38.3719 121.78C31.9681 122.282 24.0846 122.9 17.6192 119.387C16.9753 116.899 16.4205 114.304 15.9545 111.6C25.3878 116.448 40.4563 118.568 40.1477 113.578C40.0377 111.8 37.9661 112.042 34.737 112.419C29.988 112.974 22.7354 113.822 15.5367 108.966C14.6389 102.845 14.1957 96.1989 14.3044 88.999C16.3463 87.3718 18.7678 86.1367 21.4788 85.2492C25.9159 88.7383 27.9036 92.7969 29.4202 95.8934C31.1454 99.416 32.2608 101.693 35.6786 100.471C38.5796 99.4328 32.1762 92.9086 26.5728 87.1995C25.6751 86.2849 24.7979 85.3911 23.9828 84.5443C27.0476 83.818 30.4143 83.4762 33.9775 83.4683C48.496 92.982 49.7145 101.178 50.4371 106.038C50.7931 108.432 51.0287 110.017 52.6739 110.551C62.6311 113.786 45.3474 90.4812 36.8668 83.5335C48.1571 84.0487 61.0576 87.6252 72.5176 92.8477C76.5027 103.104 75.8816 110.01 75.52 114.031C75.3294 116.15 75.2109 117.468 75.877 118.052C77.5822 119.547 79.59 106.258 75.9703 94.4921C81.5769 97.2829 86.7373 100.454 91.065 103.824C91.1456 109.863 88.3946 114.768 86.4153 118.297ZM58.888 116.151C58.382 116.421 58.4176 117.481 58.9674 118.519C59.5173 119.556 60.373 120.178 60.8789 119.909C61.3847 119.639 61.3492 118.579 60.7994 117.542C60.2496 116.504 59.3938 115.882 58.888 116.151ZM64.6648 133.884C63.5552 134.261 62.4401 133.926 62.174 133.137C61.908 132.348 62.5917 131.403 63.7012 131.026C64.8107 130.65 65.926 130.984 66.192 131.774C66.4581 132.563 65.7743 133.508 64.6648 133.884ZM74.2606 135.346C74.0462 134.71 72.9729 134.5 71.8634 134.876C70.7539 135.253 70.0282 136.073 70.2426 136.709C70.457 137.345 71.5302 137.556 72.6398 137.179C73.7494 136.803 74.475 135.982 74.2606 135.346Z" fill="#E5FDFF"/>
<path d="M84.7067 123.718L84.3863 123.958L84.7067 123.718ZM86.4153 118.297L86.0664 118.102L86.4153 118.297ZM93.4173 105.746L93.678 105.443C93.5693 105.35 93.419 105.321 93.2838 105.369C93.1487 105.417 93.0495 105.533 93.0238 105.674L93.4173 105.746ZM87.5417 139.377L87.4023 139.002C87.2988 139.041 87.2158 139.121 87.173 139.222C87.1302 139.324 87.1314 139.439 87.1763 139.54L87.5417 139.377ZM82.6012 164.386L82.2104 164.301C82.1759 164.458 82.2393 164.621 82.3713 164.714C82.5033 164.807 82.678 164.811 82.8145 164.725L82.6012 164.386ZM81.1332 150.832L80.945 150.479L81.1332 150.832ZM78.3143 157.04L77.917 156.993L78.3143 157.04ZM72.0055 167.776L72.0437 168.174C72.097 168.169 72.1486 168.153 72.1957 168.128L72.0055 167.776ZM59.0596 166.61L58.8772 166.254C58.7295 166.329 58.6439 166.488 58.662 166.653C58.6801 166.818 58.7981 166.955 58.9586 166.997L59.0596 166.61ZM73.7299 146.378L73.4424 146.656V146.656L73.7299 146.378ZM69.3931 150.786L69.7544 150.958L69.3931 150.786ZM54.4106 165.122L54.2686 165.496C54.3239 165.517 54.3832 165.525 54.4421 165.52L54.4106 165.122ZM33.8077 150.767L33.9929 150.412C33.8212 150.322 33.6098 150.369 33.4913 150.522C33.3727 150.675 33.3812 150.891 33.5113 151.035L33.8077 150.767ZM66.1001 141.386L66.3762 141.097L66.3762 141.097L66.1001 141.386ZM61.5269 143.356L61.7446 143.692L61.5269 143.356ZM30.7759 147.147L30.4599 147.392C30.4942 147.437 30.5374 147.473 30.5868 147.5L30.7759 147.147ZM23.0339 134.491L23.2944 134.187C23.151 134.064 22.941 134.058 22.7909 134.173C22.6409 134.288 22.5916 134.492 22.6727 134.663L23.0339 134.491ZM57.2664 134.406L56.9338 134.628L56.9338 134.628L57.2664 134.406ZM52.9814 135.463L52.8278 135.093L52.9814 135.463ZM22.3093 132.924L21.9443 133.088C21.9665 133.137 21.9985 133.182 22.0384 133.218L22.3093 132.924ZM17.9875 121.638L18.1473 121.271C18.0039 121.208 17.8371 121.235 17.7205 121.34C17.6039 121.444 17.559 121.607 17.6056 121.757L17.9875 121.638ZM49.0031 122.592L48.7588 122.909L49.0031 122.592ZM38.3719 121.78L38.4032 122.178L38.3719 121.78ZM17.6192 119.387L17.2319 119.487C17.2597 119.595 17.3308 119.686 17.4282 119.739L17.6192 119.387ZM15.9545 111.6L16.1374 111.245C16.0025 111.175 15.84 111.188 15.7178 111.278C15.5955 111.368 15.5346 111.519 15.5603 111.668L15.9545 111.6ZM40.1477 113.578L40.5469 113.553V113.553L40.1477 113.578ZM34.737 112.419L34.6905 112.022L34.737 112.419ZM15.5367 108.966L15.1409 109.024C15.1573 109.136 15.2197 109.235 15.313 109.298L15.5367 108.966ZM14.3044 88.999L14.0551 88.6862C13.9615 88.7608 13.9063 88.8734 13.9045 88.993L14.3044 88.999ZM21.4788 85.2492L21.7261 84.9348C21.621 84.8521 21.4815 84.8275 21.3544 84.8691L21.4788 85.2492ZM29.4202 95.8934L29.7794 95.7174L29.4202 95.8934ZM35.6786 100.471L35.5438 100.094H35.5438L35.6786 100.471ZM26.5728 87.1995L26.2873 87.4797L26.5728 87.1995ZM23.9828 84.5443L23.8906 84.155C23.7508 84.1882 23.6396 84.2937 23.5991 84.4315C23.5585 84.5692 23.595 84.7182 23.6946 84.8217L23.9828 84.5443ZM33.9775 83.4683L34.1967 83.1337C34.1313 83.0908 34.0548 83.0681 33.9766 83.0683L33.9775 83.4683ZM50.4371 106.038L50.0415 106.097V106.097L50.4371 106.038ZM52.6739 110.551L52.5503 110.931L52.6739 110.551ZM36.8668 83.5335L36.885 83.1339C36.7128 83.126 36.5549 83.2294 36.4932 83.3903C36.4316 83.5513 36.4799 83.7337 36.6133 83.8429L36.8668 83.5335ZM72.5176 92.8477L72.8905 92.7028C72.8527 92.6056 72.7784 92.527 72.6835 92.4837L72.5176 92.8477ZM75.52 114.031L75.1216 113.995L75.52 114.031ZM75.877 118.052L76.1407 117.751L75.877 118.052ZM75.9703 94.4921L76.1485 94.134C76.0053 94.0627 75.8334 94.0836 75.7115 94.1871C75.5895 94.2906 75.5409 94.4568 75.588 94.6097L75.9703 94.4921ZM91.065 103.824L91.4649 103.819C91.4633 103.698 91.4066 103.583 91.3107 103.509L91.065 103.824ZM58.9674 118.519L58.614 118.706L58.614 118.706L58.9674 118.519ZM58.888 116.151L58.6997 115.798L58.6997 115.798L58.888 116.151ZM60.8789 119.909L60.6907 119.556L60.6907 119.556L60.8789 119.909ZM60.7994 117.542L60.446 117.729V117.729L60.7994 117.542ZM62.174 133.137L61.795 133.265L62.174 133.137ZM64.6648 133.884L64.7933 134.263L64.7933 134.263L64.6648 133.884ZM63.7012 131.026L63.8297 131.405L63.7012 131.026ZM71.8634 134.876L71.9919 135.255L71.9919 135.255L71.8634 134.876ZM70.2426 136.709L70.6217 136.582V136.582L70.2426 136.709ZM72.6398 137.179L72.5113 136.8L72.6398 137.179ZM85.027 123.479C84.7815 123.151 84.7729 122.624 85.1104 121.73C85.4397 120.857 86.039 119.786 86.7642 118.493L86.0664 118.102C85.3529 119.374 84.7174 120.505 84.3619 121.447C84.0145 122.368 83.8708 123.269 84.3863 123.958L85.027 123.479ZM93.0238 105.674C92.1116 110.674 90.361 115.686 88.6372 119.164C87.7724 120.909 86.9288 122.239 86.2193 122.989C85.8586 123.37 85.5738 123.557 85.3763 123.611C85.2869 123.636 85.2295 123.63 85.19 123.616C85.1499 123.602 85.0934 123.568 85.027 123.479L84.3863 123.958C84.5275 124.147 84.7063 124.294 84.9259 124.371C85.1462 124.448 85.3728 124.442 85.5884 124.383C86.0011 124.269 86.4103 123.951 86.8005 123.538C87.5928 122.701 88.4785 121.286 89.354 119.52C91.111 115.975 92.8852 110.891 93.8108 105.818L93.0238 105.674ZM87.6811 139.752C99.0113 135.539 104.074 129.959 104.432 123.814C104.788 117.716 100.485 111.295 93.678 105.443L93.1565 106.05C99.923 111.867 103.967 118.065 103.634 123.767C103.304 129.422 98.6419 134.823 87.4023 139.002L87.6811 139.752ZM82.8145 164.725C86.4827 162.413 89.1005 159.027 90.1216 154.704C91.1415 150.387 90.5593 145.174 87.9072 139.215L87.1763 139.54C89.7771 145.384 90.3127 150.415 89.343 154.52C88.3746 158.62 85.8957 161.837 82.3879 164.048L82.8145 164.725ZM81.3214 151.185C81.2561 151.22 81.1843 151.209 81.1504 151.192C81.1364 151.185 81.16 151.193 81.2131 151.264C81.3168 151.402 81.4454 151.658 81.5834 152.042C81.8552 152.798 82.1228 153.934 82.3223 155.282C82.7216 157.979 82.8364 161.447 82.2104 164.301L82.9919 164.472C83.6459 161.491 83.5212 157.917 83.1137 155.165C82.9099 153.787 82.6324 152.595 82.3362 151.771C82.1902 151.365 82.0292 151.018 81.8524 150.783C81.7652 150.667 81.6508 150.547 81.5031 150.474C81.3353 150.392 81.1339 150.378 80.945 150.479L81.3214 151.185ZM78.7116 157.086C78.8699 155.733 79.0128 154.528 79.3804 153.512C79.7407 152.517 80.3103 151.724 81.3214 151.185L80.945 150.479C79.724 151.13 79.0408 152.1 78.6282 153.24C78.2228 154.36 78.0724 155.665 77.917 156.993L78.7116 157.086ZM72.1957 168.128C74.9676 166.629 76.5018 164.78 77.3892 162.829C78.2692 160.894 78.5022 158.877 78.7116 157.086L77.917 156.993C77.7057 158.8 77.4815 160.693 76.6609 162.498C75.8477 164.286 74.4378 166.006 71.8152 167.424L72.1957 168.128ZM58.9586 166.997C63.5403 168.192 67.9928 168.563 72.0437 168.174L71.9672 167.378C68.0185 167.757 63.6605 167.396 59.1606 166.223L58.9586 166.997ZM73.4424 146.656C74.4576 147.706 74.6126 149.15 74.0687 150.891C73.523 152.637 72.2904 154.607 70.655 156.577C67.3863 160.515 62.605 164.343 58.8772 166.254L59.2421 166.966C63.0741 165.001 67.9387 161.103 71.2706 157.088C72.9355 155.082 74.2419 153.019 74.8323 151.13C75.4246 149.234 75.313 147.439 74.0175 146.1L73.4424 146.656ZM69.7544 150.958C70.6096 149.158 71.2954 147.722 71.9436 146.916C72.2694 146.511 72.5285 146.341 72.7275 146.304C72.8914 146.275 73.118 146.32 73.4424 146.656L74.0175 146.1C73.5905 145.658 73.1106 145.422 72.5846 145.517C72.0937 145.606 71.6794 145.968 71.3202 146.415C70.5982 147.313 69.8669 148.858 69.0319 150.614L69.7544 150.958ZM54.4421 165.52C58.824 165.174 62.0104 162.881 64.4156 160.011C66.8131 157.15 68.457 153.687 69.7544 150.958L69.0319 150.614C67.7282 153.357 66.1241 156.726 63.8024 159.497C61.4882 162.259 58.4838 164.398 54.3791 164.723L54.4421 165.52ZM33.5113 151.035C39.8572 158.04 47.1096 162.777 54.2686 165.496L54.5526 164.748C47.5138 162.075 40.3667 157.411 34.1042 150.498L33.5113 151.035ZM65.8239 141.675C65.8769 141.726 65.9341 141.825 65.9534 142.015C65.9729 142.206 65.9504 142.462 65.8696 142.78C65.7083 143.417 65.3322 144.234 64.7354 145.145C63.5444 146.963 61.5158 149.091 58.7435 150.806C53.2183 154.226 44.7261 156.019 33.9929 150.412L33.6225 151.121C44.6122 156.862 53.405 155.051 59.1645 151.487C62.0346 149.711 64.1484 147.501 65.4046 145.584C66.0313 144.627 66.4549 143.727 66.6451 142.977C66.7401 142.602 66.7813 142.248 66.7493 141.934C66.7173 141.619 66.6079 141.318 66.3762 141.097L65.8239 141.675ZM61.7446 143.692C62.9407 142.916 63.9043 142.292 64.6457 141.931C65.0173 141.75 65.3014 141.652 65.5103 141.624C65.712 141.596 65.7871 141.64 65.8239 141.675L66.3762 141.097C66.1022 140.835 65.747 140.785 65.4039 140.831C65.068 140.876 64.6928 141.018 64.2956 141.212C63.4994 141.599 62.4872 142.257 61.3092 143.021L61.7446 143.692ZM30.5868 147.5C44.4412 154.935 55.7449 147.584 61.7446 143.692L61.3092 143.021C55.2913 146.925 44.3717 153.99 30.9651 146.795L30.5868 147.5ZM22.6727 134.663C24.9508 139.451 27.5825 143.685 30.4599 147.392L31.0919 146.902C28.2507 143.241 25.649 139.056 23.3951 134.319L22.6727 134.663ZM56.9338 134.628C56.9372 134.633 56.963 134.663 56.9193 134.778C56.8715 134.903 56.7561 135.078 56.5424 135.296C56.1186 135.73 55.3956 136.246 54.4091 136.78C52.4435 137.844 49.5151 138.936 46.083 139.574C39.2156 140.849 30.4147 140.296 23.2944 134.187L22.7735 134.794C30.141 141.115 39.2202 141.662 46.2291 140.36C49.7351 139.709 52.7439 138.592 54.79 137.484C55.8093 136.932 56.6108 136.371 57.1144 135.856C57.3644 135.6 57.5635 135.333 57.6666 135.063C57.7737 134.783 57.7866 134.465 57.599 134.184L56.9338 134.628ZM53.135 135.832C54.3237 135.337 55.2756 134.942 55.9781 134.737C56.3312 134.634 56.5873 134.59 56.7612 134.593C56.8455 134.595 56.8926 134.607 56.9155 134.617C56.9259 134.621 56.9304 134.625 56.9314 134.626C56.9323 134.626 56.9328 134.627 56.9338 134.628L57.599 134.184C57.4003 133.886 57.0738 133.799 56.7757 133.794C56.4791 133.788 56.13 133.86 55.7542 133.969C54.9988 134.189 53.998 134.606 52.8278 135.093L53.135 135.832ZM22.0384 133.218C33.6876 143.943 46.6399 138.534 53.135 135.832L52.8278 135.093C46.2931 137.812 33.8212 142.979 22.5803 132.63L22.0384 133.218ZM17.6056 121.757C18.6212 125.016 20.6594 130.221 21.9443 133.088L22.6743 132.761C21.3996 129.916 19.3736 124.741 18.3694 121.519L17.6056 121.757ZM48.7588 122.909C49.9782 123.849 50.2766 124.865 49.9061 125.673C49.5107 126.535 48.2683 127.399 45.8543 127.786C41.0623 128.553 32.1017 127.354 18.1473 121.271L17.8277 122.004C31.8282 128.107 40.961 129.38 45.9809 128.576C48.4729 128.176 50.066 127.243 50.6333 126.006C51.2255 124.715 50.6136 123.329 49.2474 122.275L48.7588 122.909ZM38.4032 122.178C40.788 121.991 42.9367 121.823 44.7306 121.885C46.537 121.948 47.8958 122.243 48.7588 122.909L49.2474 122.275C48.1737 121.447 46.5944 121.149 44.7582 121.086C42.9095 121.022 40.711 121.195 38.3406 121.381L38.4032 122.178ZM17.4282 119.739C24.0156 123.318 32.0244 122.679 38.4032 122.178L38.3406 121.381C31.9118 121.885 24.1536 122.482 17.8101 119.036L17.4282 119.739ZM15.5603 111.668C16.028 114.382 16.5852 116.988 17.2319 119.487L18.0064 119.287C17.3655 116.81 16.8129 114.226 16.3487 111.533L15.5603 111.668ZM39.7484 113.602C39.78 114.113 39.6194 114.516 39.2976 114.845C38.9638 115.186 38.4371 115.468 37.7158 115.671C36.2714 116.078 34.1814 116.135 31.7459 115.88C26.8853 115.373 20.8081 113.645 16.1374 111.245L15.7717 111.956C20.5343 114.404 26.7079 116.159 31.6628 116.676C34.135 116.934 36.3438 116.888 37.9327 116.441C38.7281 116.217 39.4017 115.883 39.8697 115.404C40.3497 114.913 40.5925 114.29 40.5469 113.553L39.7484 113.602ZM34.7834 112.816C36.4202 112.625 37.6874 112.48 38.5634 112.587C38.9953 112.64 39.2758 112.749 39.4507 112.898C39.6114 113.035 39.7262 113.242 39.7484 113.602L40.5469 113.553C40.5142 113.024 40.3288 112.595 39.9692 112.289C39.6238 111.995 39.164 111.855 38.6606 111.793C37.6661 111.671 36.2829 111.836 34.6905 112.022L34.7834 112.816ZM15.313 109.298C22.6445 114.243 30.0335 113.371 34.7834 112.816L34.6905 112.022C29.9425 112.577 22.8264 113.4 15.7604 108.635L15.313 109.298ZM13.9045 88.993C13.7954 96.2131 14.2398 102.88 15.1409 109.024L15.9325 108.908C15.038 102.809 14.5959 96.1848 14.7044 89.0051L13.9045 88.993ZM21.3544 84.8691C18.6064 85.7686 16.1406 87.0243 14.0551 88.6862L14.5537 89.3119C16.5521 87.7193 18.9292 86.5047 21.6033 85.6294L21.3544 84.8691ZM29.7794 95.7174C28.261 92.6171 26.2403 88.4846 21.7261 84.9348L21.2316 85.5637C25.5914 88.992 27.5463 92.9767 29.0609 96.0693L29.7794 95.7174ZM35.5438 100.094C34.7312 100.385 34.0905 100.455 33.5638 100.372C33.043 100.289 32.5999 100.052 32.187 99.6685C31.7682 99.2792 31.3835 98.7413 30.9912 98.0657C30.5991 97.3906 30.2124 96.6016 29.7794 95.7174L29.0609 96.0693C29.4905 96.9465 29.8903 97.763 30.2994 98.4675C30.7082 99.1715 31.1395 99.787 31.6423 100.254C32.1512 100.728 32.7356 101.051 33.4391 101.162C34.1367 101.272 34.9171 101.168 35.8133 100.847L35.5438 100.094ZM26.2873 87.4797C29.0949 90.3402 32.0782 93.3806 34 95.8335C34.9666 97.0672 35.6314 98.1117 35.8879 98.8876C36.0161 99.2754 36.0237 99.5424 35.9688 99.7157C35.922 99.8633 35.8127 99.9979 35.5438 100.094L35.8133 100.847C36.2698 100.684 36.595 100.388 36.7314 99.9575C36.8596 99.5531 36.7992 99.0955 36.6475 98.6365C36.3441 97.7187 35.6018 96.5808 34.6297 95.3401C32.6742 92.8441 29.6541 89.7679 26.8582 86.9193L26.2873 87.4797ZM23.6946 84.8217C24.5113 85.6702 25.3899 86.5654 26.2873 87.4797L26.8582 86.9193C25.9602 86.0044 25.0845 85.1121 24.271 84.2669L23.6946 84.8217ZM33.9766 83.0683C30.3892 83.0763 26.9911 83.4203 23.8906 84.155L24.0751 84.9335C27.104 84.2157 30.4393 83.8762 33.9784 83.8683L33.9766 83.0683ZM50.8328 105.979C50.4702 103.54 49.9768 100.213 47.7276 96.2989C45.4798 92.3871 41.4961 87.9168 34.1967 83.1337L33.7583 83.8028C40.9774 88.5334 44.8622 92.9179 47.034 96.6974C49.2043 100.475 49.6815 103.675 50.0415 106.097L50.8328 105.979ZM52.7975 110.171C52.1084 109.947 51.7165 109.517 51.4427 108.841C51.1556 108.133 51.0133 107.193 50.8328 105.979L50.0415 106.097C50.2169 107.276 50.3704 108.326 50.7014 109.142C51.0456 109.991 51.5942 110.621 52.5503 110.931L52.7975 110.171ZM36.6133 83.8429C40.8123 87.2829 47.2277 94.8112 51.3503 101.081C52.3791 102.645 53.2608 104.125 53.9276 105.437C54.5973 106.755 55.0387 107.882 55.2045 108.747C55.3764 109.643 55.2251 110.09 54.9643 110.282C54.8245 110.385 54.5987 110.462 54.2355 110.457C53.8718 110.452 53.398 110.366 52.7975 110.171L52.5503 110.931C53.1944 111.141 53.7525 111.251 54.2254 111.257C54.6988 111.263 55.1144 111.164 55.4384 110.926C56.1051 110.436 56.1709 109.538 55.9901 108.596C55.8033 107.622 55.3224 106.416 54.6408 105.075C53.9565 103.728 53.0581 102.222 52.0187 100.641C47.8686 94.3297 41.4018 86.7317 37.1202 83.2241L36.6133 83.8429ZM72.6835 92.4837C61.1889 87.2455 48.2381 83.652 36.885 83.1339L36.8485 83.9331C48.0762 84.4455 60.9262 88.0049 72.3517 93.2117L72.6835 92.4837ZM75.9184 114.067C76.2824 110.019 76.9077 103.042 72.8905 92.7028L72.1448 92.9926C76.0978 103.167 75.4807 110.002 75.1216 113.995L75.9184 114.067ZM76.1407 117.751C75.9363 117.572 75.8055 117.241 75.7768 116.599C75.7485 115.965 75.8221 115.137 75.9184 114.067L75.1216 113.995C75.0273 115.044 74.9463 115.934 74.9776 116.635C75.0086 117.327 75.1516 117.948 75.6133 118.352L76.1407 117.751ZM75.588 94.6097C77.381 100.438 77.7817 106.653 77.5212 111.222C77.3907 113.509 77.0958 115.363 76.7374 116.539C76.5547 117.139 76.37 117.512 76.2169 117.689C76.142 117.775 76.1113 117.772 76.1325 117.768C76.1724 117.761 76.1815 117.787 76.1407 117.751L75.6133 118.352C75.7856 118.503 76.0103 118.6 76.2652 118.557C76.5013 118.517 76.6851 118.37 76.8212 118.213C77.0902 117.903 77.3138 117.392 77.5026 116.772C77.8871 115.51 78.1876 113.586 78.3199 111.268C78.5846 106.625 78.1793 100.312 76.3526 94.3745L75.588 94.6097ZM91.3107 103.509C86.9585 100.119 81.7746 96.9345 76.1485 94.134L75.792 94.8502C81.3791 97.6313 86.5161 100.789 90.8192 104.14L91.3107 103.509ZM86.7642 118.493C88.7399 114.97 91.5472 109.978 91.4649 103.819L90.665 103.83C90.7441 109.748 88.0493 114.566 86.0664 118.102L86.7642 118.493ZM59.3209 118.331C59.0681 117.854 58.9435 117.389 58.9316 117.034C58.9186 116.648 59.0329 116.527 59.0762 116.504L58.6997 115.798C58.237 116.045 58.1162 116.589 58.132 117.06C58.1488 117.562 58.3169 118.145 58.614 118.706L59.3209 118.331ZM60.6907 119.556C60.6482 119.578 60.4856 119.606 60.1749 119.38C59.8882 119.172 59.5736 118.808 59.3209 118.331L58.614 118.706C58.911 119.266 59.2993 119.733 59.7044 120.027C60.0855 120.305 60.6037 120.509 61.0672 120.262L60.6907 119.556ZM60.446 117.729C60.6987 118.206 60.8233 118.671 60.8352 119.026C60.8482 119.412 60.7339 119.533 60.6907 119.556L61.0672 120.262C61.5298 120.015 61.6506 119.471 61.6348 119C61.618 118.498 61.4499 117.915 61.1528 117.354L60.446 117.729ZM59.0762 116.504C59.1186 116.482 59.2812 116.454 59.5919 116.68C59.8787 116.888 60.1932 117.252 60.446 117.729L61.1528 117.354C60.8558 116.794 60.4675 116.327 60.0624 116.033C59.6814 115.756 59.1631 115.551 58.6997 115.798L59.0762 116.504ZM61.795 133.265C61.9803 133.814 62.4498 134.169 62.9881 134.331C63.5274 134.493 64.1691 134.475 64.7933 134.263L64.5362 133.505C64.0509 133.67 63.5802 133.673 63.218 133.565C62.8549 133.456 62.6338 133.249 62.553 133.009L61.795 133.265ZM63.5727 130.648C62.9485 130.859 62.4281 131.236 62.0977 131.692C61.768 132.148 61.6097 132.715 61.795 133.265L62.553 133.009C62.4722 132.769 62.5228 132.47 62.7458 132.161C62.9682 131.854 63.3444 131.57 63.8297 131.405L63.5727 130.648ZM66.5711 131.646C66.3857 131.096 65.9162 130.741 65.3779 130.58C64.8386 130.418 64.1969 130.436 63.5727 130.648L63.8297 131.405C64.3151 131.24 64.7858 131.237 65.148 131.346C65.5112 131.455 65.7323 131.662 65.813 131.901L66.5711 131.646ZM64.7933 134.263C65.4175 134.051 65.938 133.675 66.2683 133.218C66.598 132.763 66.7563 132.195 66.5711 131.646L65.813 131.901C65.8938 132.141 65.8433 132.441 65.6202 132.749C65.3978 133.057 65.0216 133.341 64.5362 133.505L64.7933 134.263ZM71.9919 135.255C72.4929 135.085 72.9672 135.055 73.3208 135.124C73.6869 135.196 73.8399 135.35 73.8816 135.474L74.6396 135.218C74.4669 134.706 73.9761 134.437 73.4746 134.339C72.9606 134.238 72.3435 134.291 71.7349 134.497L71.9919 135.255ZM70.6217 136.582C70.5799 136.458 70.6083 136.241 70.8562 135.96C71.0956 135.69 71.491 135.425 71.9919 135.255L71.7349 134.497C71.1262 134.704 70.6041 135.038 70.2569 135.431C69.9182 135.814 69.691 136.325 69.8636 136.837L70.6217 136.582ZM72.5113 136.8C72.0103 136.97 71.536 137.001 71.1824 136.931C70.8163 136.86 70.6633 136.705 70.6217 136.582L69.8636 136.837C70.0363 137.35 70.5271 137.618 71.0286 137.716C71.5425 137.817 72.1597 137.764 72.7683 137.558L72.5113 136.8ZM73.8816 135.474C73.9233 135.598 73.8949 135.815 73.647 136.095C73.4077 136.366 73.0122 136.63 72.5113 136.8L72.7683 137.558C73.377 137.351 73.8991 137.018 74.2464 136.625C74.5851 136.242 74.8122 135.73 74.6396 135.218L73.8816 135.474Z" fill="#3D3D3C"/>
<path d="M67.0802 107.027C67.3112 105.77 67.1984 104.473 66.7535 103.274L67.0802 107.027Z" fill="#F5F6F7"/>
<path d="M67.0802 107.027C67.3112 105.77 67.1984 104.473 66.7535 103.274" stroke="#3D3D3C" stroke-width="0.8" stroke-linecap="round" stroke-linejoin="round"/>
<path d="M44.2014 143.606C45.4384 143.574 46.6432 143.205 47.6871 142.541L44.2014 143.606Z" fill="#F5F6F7"/>
<path d="M44.2014 143.606C45.4384 143.574 46.6432 143.205 47.6871 142.541" stroke="#3D3D3C" stroke-width="0.8" stroke-linecap="round" stroke-linejoin="round"/>
<path d="M89.8672 135.644L90.833 135.481L89.8672 135.644Z" fill="#F5F6F7"/>
<path d="M89.8672 135.644L90.833 135.481" stroke="#3D3D3C" stroke-width="0.8" stroke-linecap="round" stroke-linejoin="round"/>
<path d="M87.6198 154.682L105.07 155.764C109.921 152.28 114.977 148.431 120.05 144.244L105.156 143.498L124.14 140.793C129.361 136.295 134.543 131.45 139.479 126.288L127.569 125.691L141.962 123.641C147.938 117.146 153.489 110.18 158.221 102.803L141.093 101.944L160.45 99.1868C165.594 90.5218 169.564 81.3231 171.764 71.684L162.249 71.2072L172.174 69.7934C173.177 64.8888 173.686 59.8959 173.692 54.8896C173.692 54.8896 165.659 57.2353 154.016 62.9854L151.012 76.0877L149.06 65.5318C142.19 69.1977 135.571 73.3171 129.248 77.8628L131.149 89.6545L126.081 80.2008C122.575 82.8515 119.037 85.7435 115.53 88.892L116.78 96.6498L113.577 90.6751C108.876 95.0325 104.459 99.6865 100.353 104.608L102.2 121.664L97.1421 108.606C93.1126 113.806 89.4568 119.285 86.2022 125.002L87.6198 138.092L84.0629 128.91C76.7309 142.836 71.2222 159.131 68.8838 178.121C68.8838 178.121 82.7855 171.222 100.462 159.011L87.6198 154.682Z" fill="#ECEDEE" stroke="#3D3D3C" stroke-width="0.8" stroke-linecap="round" stroke-linejoin="round"/>
<path d="M111.944 132.748C114.017 133.283 116.154 133.529 118.294 133.478L111.944 132.748Z" fill="#F5F6F7"/>
<path d="M111.944 132.748C114.017 133.283 116.154 133.529 118.294 133.478" stroke="#3D3D3C" stroke-width="0.8" stroke-linecap="round" stroke-linejoin="round"/>
<path d="M123.983 93.3291L123.816 94.6725L123.983 93.3291Z" fill="#F5F6F7"/>
<path d="M123.983 93.3291L123.816 94.6725" stroke="#3D3D3C" stroke-width="0.8" stroke-linecap="round" stroke-linejoin="round"/>
<path d="M152.6 86.4884C154.401 86.861 156.274 86.6644 157.959 85.9258L152.6 86.4884Z" fill="#F5F6F7"/>
<path d="M152.6 86.4884C154.401 86.861 156.274 86.6644 157.959 85.9258" stroke="#3D3D3C" stroke-width="0.8" stroke-linecap="round" stroke-linejoin="round"/>
<path fill-rule="evenodd" clip-rule="evenodd" d="M32.7012 40.4487C32.7012 24.5392 45.5573 11.6421 61.4164 11.6421C77.2755 11.6421 90.1315 24.5392 90.1315 40.4487C90.1315 56.3581 77.2755 69.2553 61.4164 69.2553C45.5572 69.2553 32.7012 56.3581 32.7012 40.4487ZM45.7536 40.4487C45.7536 49.1266 52.766 56.1614 61.4164 56.1614C70.0667 56.1614 77.0792 49.1266 77.0792 40.4487C77.0792 31.7708 70.0667 24.736 61.4164 24.736C52.766 24.736 45.7536 31.7708 45.7536 40.4487Z" fill="#ECEDEE"/>
<path d="M61.4164 11.2421C45.3352 11.2421 32.3012 24.3195 32.3012 40.4487H33.1012C33.1012 24.7589 45.7794 12.0421 61.4164 12.0421V11.2421ZM90.5315 40.4487C90.5315 24.3195 77.4976 11.2421 61.4164 11.2421V12.0421C77.0534 12.0421 89.7315 24.7589 89.7315 40.4487H90.5315ZM61.4164 69.6553C77.4976 69.6553 90.5315 56.5778 90.5315 40.4487H89.7315C89.7315 56.1384 77.0534 68.8553 61.4164 68.8553V69.6553ZM32.3012 40.4487C32.3012 56.5778 45.3351 69.6553 61.4164 69.6553V68.8553C45.7794 68.8553 33.1012 56.1384 33.1012 40.4487H32.3012ZM61.4164 55.7614C52.9881 55.7614 46.1536 48.9069 46.1536 40.4487H45.3536C45.3536 49.3463 52.5439 56.5614 61.4164 56.5614V55.7614ZM76.6792 40.4487C76.6792 48.9069 69.8446 55.7614 61.4164 55.7614V56.5614C70.2888 56.5614 77.4792 49.3463 77.4792 40.4487H76.6792ZM61.4164 25.136C69.8446 25.136 76.6792 31.9905 76.6792 40.4487H77.4792C77.4792 31.5511 70.2888 24.336 61.4164 24.336V25.136ZM46.1536 40.4487C46.1536 31.9905 52.9881 25.136 61.4164 25.136V24.336C52.5439 24.336 45.3536 31.5511 45.3536 40.4487H46.1536Z" fill="#3D3D3C"/>
<path d="M61.2899 57.2939H72.3376C76.9304 57.2939 80.6536 61.0171 80.6536 65.6099V65.6231H61.2899V57.2939Z" fill="#4F4F5B" stroke="#3D3D3C" stroke-width="0.8" stroke-linecap="round" stroke-linejoin="round"/>
<rect x="55.5688" y="61.875" width="65.7194" height="21.7162" fill="white" stroke="#3D3D3C" stroke-width="0.8" stroke-linecap="round" stroke-linejoin="round"/>
<path d="M125.689 70.4424H51.1679L53.579 96.688H123.278L125.689 70.4424Z" fill="white"/>
<mask id="mask0_38_4693" style="mask-type:alpha" maskUnits="userSpaceOnUse" x="51" y="70" width="75" height="27">
<path fill-rule="evenodd" clip-rule="evenodd" d="M125.689 70.4424H51.1679L53.579 96.688H123.278L125.689 70.4424Z" fill="white"/>
</mask>
<g mask="url(#mask0_38_4693)">
<path d="M51.1678 105.438C50.4513 79.5769 106.831 84.6133 115.919 83.7696C125.007 82.9259 63.619 70.8325 63.619 70.8325L46.0002 75.1627L44.8874 80.6933" fill="#CFCFD0"/>
</g>
<path fill-rule="evenodd" clip-rule="evenodd" d="M125.689 70.4424H51.1679L53.579 96.688H123.278L125.689 70.4424V70.4424Z" stroke="#3D3D3C" stroke-width="0.8" stroke-linecap="round" stroke-linejoin="round"/>
<path d="M58.347 148.59L61.5232 183.165C61.5232 183.999 73.5693 184.675 88.4284 184.675C103.288 184.675 115.334 183.999 115.334 183.165L118.51 148.59H58.347Z" fill="white" stroke="#3D3D3C" stroke-width="0.8" stroke-linecap="round" stroke-linejoin="round"/>
<path d="M53.579 96.6885L58.3469 148.59H118.51L123.278 96.6885H53.579Z" fill="#FFCCC7"/>
<mask id="mask1_38_4693" style="mask-type:alpha" maskUnits="userSpaceOnUse" x="53" y="96" width="71" height="53">
<path fill-rule="evenodd" clip-rule="evenodd" d="M53.579 96.6885L58.3469 148.59H118.51L123.278 96.6885H53.579Z" fill="white"/>
</mask>
<g mask="url(#mask1_38_4693)">
<path d="M121.288 90.2749C111.005 158.37 58.3471 148.59 58.3471 148.59L48.4114 166.632H137.989L138.267 105.345L121.288 90.2749Z" fill="#F0BBB6"/>
</g>
<path fill-rule="evenodd" clip-rule="evenodd" d="M53.579 96.6885L58.3469 148.59H118.51L123.278 96.6885H53.579V96.6885Z" stroke="#3D3D3C" stroke-width="0.8" stroke-linecap="round" stroke-linejoin="round"/>
<rect x="41.4861" y="70.4424" width="93.8848" height="13.3267" fill="#ECEDEE" stroke="#3D3D3C" stroke-width="0.8" stroke-linecap="round" stroke-linejoin="round"/>
<ellipse cx="88.4285" cy="122.627" rx="19.7621" ry="19.825" fill="white" stroke="#3D3D3C" stroke-width="0.8" stroke-linecap="round" stroke-linejoin="round"/>
<path d="M94.9011 75.3257L93.4174 77.5583L94.9011 75.3257Z" fill="#F5F6F7"/>
<path d="M94.9011 75.3257L93.4174 77.5583" stroke="#3D3D3C" stroke-width="0.8" stroke-linecap="round" stroke-linejoin="round"/>
<path d="M106.782 162.408C104.815 164.52 102.406 166.171 99.7258 167.241L106.782 162.408Z" fill="#F5F6F7"/>
<path d="M106.782 162.408C104.815 164.52 102.406 166.171 99.7258 167.241" stroke="#3D3D3C" stroke-width="0.8" stroke-linecap="round" stroke-linejoin="round"/>
<path d="M65.6918 107.776L62.6605 111.444L65.6918 107.776Z" fill="#F5F6F7"/>
<path d="M65.6918 107.776L62.6605 111.444" stroke="#3D3D3C" stroke-width="0.8" stroke-linecap="round" stroke-linejoin="round"/>
<path d="M104.363 125.695C104.073 127.238 103.371 128.674 102.331 129.851L104.363 125.695Z" fill="#F5F6F7"/>
<path d="M104.363 125.695C104.073 127.238 103.371 128.674 102.331 129.851" stroke="#3D3D3C" stroke-width="0.8" stroke-linecap="round" stroke-linejoin="round"/>
<path d="M59.9644 140C59.9766 139.986 59.9792 139.967 59.9709 139.95C59.9627 139.933 59.9452 139.924 59.9268 139.925C29.8527 142.35 51.0207 172.864 23.6678 163.834C-3.72 154.793 4.35591 188.843 32.9726 178.628C54.8479 170.82 35.1852 142.613 59.976 143.58L59.9644 140Z" fill="white"/>
<mask id="mask2_38_4693" style="mask-type:alpha" maskUnits="userSpaceOnUse" x="6" y="139" width="54" height="42">
<path fill-rule="evenodd" clip-rule="evenodd" d="M59.9644 140C59.9766 139.986 59.9792 139.967 59.9709 139.95C59.9627 139.933 59.9452 139.924 59.9268 139.925C29.8527 142.35 51.0207 172.864 23.6678 163.834C-3.72 154.793 4.35591 188.843 32.9726 178.628C54.8479 170.82 35.1852 142.613 59.976 143.58L59.9644 140Z" fill="white"/>
</mask>
<g mask="url(#mask2_38_4693)">
<ellipse cx="24.2264" cy="163.13" rx="5.73505" ry="8.39513" fill="#4F4F5B" stroke="#3D3D3C" stroke-width="0.8" stroke-linecap="round" stroke-linejoin="round"/>
<ellipse cx="13.4564" cy="180.568" rx="5.73744" ry="8.39258" transform="rotate(-19.6018 13.4564 180.568)" fill="#4F4F5B" stroke="#3D3D3C" stroke-width="0.800045" stroke-linecap="round" stroke-linejoin="round"/>
<ellipse cx="43.4101" cy="172.583" rx="5.73711" ry="8.39211" transform="rotate(-19.6006 43.4101 172.583)" fill="#002B38" stroke="#3D3D3C" stroke-width="0.8" stroke-linecap="round" stroke-linejoin="round"/>
<path d="M47.3102 144.152C39.4331 149.757 45.6628 162.572 44.0552 170.091C42.8158 175.889 55.6428 150.255 55.6428 150.255L51.9236 141.051" fill="#CFCFD0"/>
</g>
<path fill-rule="evenodd" clip-rule="evenodd" d="M59.9644 140C59.9766 139.986 59.9792 139.967 59.9709 139.95C59.9627 139.933 59.9452 139.924 59.9268 139.925C29.8527 142.35 51.0207 172.864 23.6678 163.834C-3.72 154.793 4.35591 188.843 32.9726 178.628C54.8479 170.82 35.1852 142.613 59.976 143.58L59.9644 140Z" stroke="#3D3D3C" stroke-width="0.8" stroke-linecap="round" stroke-linejoin="round"/>
<path d="M101.073 185.219H67.024C65.7075 185.22 64.4387 184.726 63.4686 183.836C9.01057 133.77 83.8395 121.697 108.63 173.007C108.63 173.007 109.289 169.397 112.449 168.736C112.449 168.736 113.246 169.11 113.597 172.984C113.597 172.984 116.533 171.974 118.445 174.71C118.445 174.71 119.998 173.315 122.141 173.331C122.141 173.331 123.21 175.338 121.871 178.773C124.621 183.675 118.629 185.219 118.629 185.219H100.02" fill="white"/>
<mask id="mask3_38_4693" style="mask-type:alpha" maskUnits="userSpaceOnUse" x="44" y="139" width="79" height="47">
<path fill-rule="evenodd" clip-rule="evenodd" d="M101.073 185.219H67.024C65.7075 185.22 64.4387 184.726 63.4686 183.836C9.01057 133.77 83.8395 121.697 108.63 173.007C108.63 173.007 109.289 169.397 112.449 168.736C112.449 168.736 113.246 169.11 113.597 172.984C113.597 172.984 116.533 171.974 118.445 174.71C118.445 174.71 119.998 173.315 122.141 173.331C122.141 173.331 123.21 175.338 121.871 178.773C124.621 183.675 118.629 185.219 118.629 185.219H100.02" fill="white"/>
</mask>
<g mask="url(#mask3_38_4693)">
<path d="M110.208 166.521L108.631 173.007C108.631 173.007 103.171 173.639 105.91 180.279C105.91 180.279 100.806 172.157 108.731 166.521" fill="#CFCFD0"/>
<path d="M88.7164 187.611C88.7164 187.611 90.2624 173.949 79.0727 180.721C79.0727 180.721 101.919 150.13 77.8871 148.032C75.4795 147.821 75.2307 149.881 75.2307 149.881L78.3921 160.243L67.0241 185.219L57.5247 186.465" fill="#CFCFD0"/>
<path d="M106.6 185.95C106.6 185.95 107.79 177.358 96.5029 179.203C85.2158 181.048 92.9885 188.291 92.9885 188.291H102.596" fill="#CFCFD0"/>
<ellipse cx="97.3276" cy="151.136" rx="8.72742" ry="12.7662" transform="rotate(-19.6006 97.3276 151.136)" fill="#002B38" stroke="#3D3D3C" stroke-width="0.8" stroke-linecap="round" stroke-linejoin="round"/>
<ellipse cx="116.61" cy="172.722" rx="2.34815" ry="2.35563" fill="#CFCFD0"/>
<ellipse cx="122.593" cy="183.013" rx="2.34815" ry="2.35563" fill="#CFCFD0"/>
<ellipse cx="107.394" cy="178.964" rx="1.6604" ry="1.66568" fill="#CFCFD0"/>
<ellipse cx="54.0336" cy="176.087" rx="12.7475" ry="8.74026" transform="rotate(-40.7406 54.0336 176.087)" fill="#002B38" stroke="#3D3D3C" stroke-width="0.8" stroke-linecap="round" stroke-linejoin="round"/>
<path d="M105.909 180.278C103.466 177.74 106.078 172.876 108.631 173.007L105.909 180.278Z" fill="#F5F6F7"/>
<path d="M105.909 180.278C103.466 177.74 106.078 172.876 108.631 173.007" stroke="#3D3D3C" stroke-width="0.8" stroke-linecap="round" stroke-linejoin="round"/>
</g>
<path d="M101.073 185.219H67.024C65.7075 185.22 64.4387 184.726 63.4686 183.836C9.01057 133.77 83.8395 121.697 108.63 173.007C108.63 173.007 109.289 169.397 112.449 168.736C112.449 168.736 113.246 169.11 113.597 172.984C113.597 172.984 116.533 171.974 118.445 174.71C118.445 174.71 119.998 173.315 122.141 173.331C122.141 173.331 123.21 175.338 121.871 178.773C124.621 183.675 118.629 185.219 118.629 185.219H100.02" stroke="#3D3D3C" stroke-width="0.8" stroke-linecap="round" stroke-linejoin="round"/>
<path d="M93.8165 164.202C76.6113 177 86.3258 185.219 86.3258 185.219H105.872C105.872 185.219 106.6 177.686 96.0426 179.926L99.6114 175.221" fill="white"/>
<mask id="mask4_38_4693" style="mask-type:alpha" maskUnits="userSpaceOnUse" x="83" y="164" width="23" height="22">
<path fill-rule="evenodd" clip-rule="evenodd" d="M93.8165 164.202C76.6113 177 86.3258 185.219 86.3258 185.219H105.872C105.872 185.219 106.6 177.686 96.0426 179.926L99.6114 175.221" fill="white"/>
</mask>
<g mask="url(#mask4_38_4693)">
<path d="M81.5998 177.881C88.0619 177.321 86.3883 186.466 86.3883 186.466L78.8103 183.927L80.1804 180.279" fill="#CFCFD0"/>
</g>
<path d="M93.8165 164.202C76.6113 177 86.3258 185.219 86.3258 185.219H105.872C105.872 185.219 106.6 177.686 96.0426 179.926L99.6114 175.221" stroke="#3D3D3C" stroke-width="0.8" stroke-linecap="round" stroke-linejoin="round"/>
<path d="M75.4775 147.846C91.6634 148.681 85.2837 171.813 77.6065 181.462C77.6065 181.462 87.3433 175.709 85.2839 185.219H65.9023" fill="white"/>
<path d="M75.4775 147.846C91.6634 148.681 85.2837 171.813 77.6065 181.462C77.6065 181.462 87.3433 175.709 85.2839 185.219H65.9023" stroke="#3D3D3C" stroke-width="0.8" stroke-linecap="round" stroke-linejoin="round"/>
<ellipse cx="112.754" cy="178.541" rx="2.38387" ry="1.18261" transform="rotate(-68.5122 112.754 178.541)" fill="white"/>
<mask id="mask5_38_4693" style="mask-type:alpha" maskUnits="userSpaceOnUse" x="111" y="176" width="4" height="5">
<ellipse cx="112.754" cy="178.541" rx="2.38387" ry="1.18261" transform="rotate(-68.5122 112.754 178.541)" fill="white"/>
</mask>
<g mask="url(#mask5_38_4693)">
<ellipse cx="113.936" cy="178.259" rx="0.621842" ry="0.838127" transform="rotate(-76.7086 113.936 178.259)" fill="#4F4F5B" stroke="#3D3D3C" stroke-width="0.799989" stroke-linecap="round" stroke-linejoin="round"/>
</g>
<ellipse cx="112.754" cy="178.541" rx="2.38387" ry="1.18261" transform="rotate(-68.5122 112.754 178.541)" stroke="#3D3D3C" stroke-width="0.8" stroke-linecap="round" stroke-linejoin="round"/>
<ellipse cx="117.215" cy="179.925" rx="2.38387" ry="1.18261" transform="rotate(-68.5122 117.215 179.925)" fill="white"/>
<mask id="mask6_38_4693" style="mask-type:alpha" maskUnits="userSpaceOnUse" x="115" y="177" width="4" height="6">
<ellipse cx="117.215" cy="179.925" rx="2.38387" ry="1.18261" transform="rotate(-68.5122 117.215 179.925)" fill="white"/>
</mask>
<g mask="url(#mask6_38_4693)">
<ellipse cx="118.398" cy="179.64" rx="0.62185" ry="0.838138" transform="rotate(-76.7093 118.398 179.64)" fill="#4F4F5B" stroke="#3D3D3C" stroke-width="0.8" stroke-linecap="round" stroke-linejoin="round"/>
</g>
<ellipse cx="117.215" cy="179.925" rx="2.38387" ry="1.18261" transform="rotate(-68.5122 117.215 179.925)" stroke="#3D3D3C" stroke-width="0.8" stroke-linecap="round" stroke-linejoin="round"/>
<path d="M117.074 182.529C119.37 181.882 123.963 182.683 125.792 183.731L117.074 182.529Z" fill="#F5F6F7"/>
<path d="M117.074 182.529C119.37 181.882 123.963 182.683 125.792 183.731" stroke="#3D3D3C" stroke-width="0.8" stroke-linecap="round" stroke-linejoin="round"/>
<path d="M117.005 183.579C119.301 182.932 123.279 184.903 125.108 185.95L117.005 183.579Z" fill="#F5F6F7"/>
<path d="M117.005 183.579C119.301 182.932 123.279 184.903 125.108 185.95" stroke="#3D3D3C" stroke-width="0.8" stroke-linecap="round" stroke-linejoin="round"/>
<path d="M116.61 184.64C120.91 185.159 123.253 187.455 123.989 188.291L116.61 184.64Z" fill="#F5F6F7"/>
<path d="M116.61 184.64C120.91 185.159 123.253 187.455 123.989 188.291" stroke="#3D3D3C" stroke-width="0.8" stroke-linecap="round" stroke-linejoin="round"/>
<path d="M111.25 180.722C109.863 178.931 105.687 177.011 103.537 176.824L111.25 180.722Z" fill="#F5F6F7"/>
<path d="M111.25 180.722C109.863 178.931 105.687 177.011 103.537 176.824" stroke="#3D3D3C" stroke-width="0.8" stroke-linecap="round" stroke-linejoin="round"/>
<path d="M110.603 181.593C109.216 179.802 104.746 179.151 102.596 178.964L110.603 181.593Z" fill="#F5F6F7"/>
<path d="M110.603 181.593C109.216 179.802 104.746 179.151 102.596 178.964" stroke="#3D3D3C" stroke-width="0.8" stroke-linecap="round" stroke-linejoin="round"/>
<path d="M110.208 182.653C106.453 180.673 103.062 181.188 101.919 181.442L110.208 182.653Z" fill="#F5F6F7"/>
<path d="M110.208 182.653C106.453 180.673 103.062 181.188 101.919 181.442" stroke="#3D3D3C" stroke-width="0.8" stroke-linecap="round" stroke-linejoin="round"/>
<path d="M113.423 183.649L113.155 183.154C112.956 182.784 113.309 182.367 113.751 182.449L114.092 182.512C114.191 182.53 114.287 182.56 114.379 182.601L114.692 182.741C114.875 182.812 114.996 182.989 114.997 183.186C114.997 183.382 114.876 183.559 114.693 183.631L114.15 183.875C113.886 183.997 113.571 183.9 113.423 183.649Z" fill="#4F4F5B" stroke="#3D3D3C" stroke-width="0.8" stroke-linecap="round" stroke-linejoin="round"/>
<path d="M184.005 97.5532L178.331 90.5102C178.331 90.5102 211.715 81.7739 215.615 88.7104L213.484 95.4912" fill="#4F4F5B"/>
<path d="M184.005 97.5532L178.331 90.5102C178.331 90.5102 211.715 81.7739 215.615 88.7104L213.484 95.4912" stroke="#3D3D3C" stroke-width="0.8" stroke-linecap="round" stroke-linejoin="round"/>
<path d="M114.427 51.1147C108.341 53.5516 105.14 58.5041 100.905 57.4706C98.9904 57.0034 83.0101 52.4995 83.01 47.8921C83.01 46.4837 97.6428 47.5602 101.617 47.4774C105.592 47.3945 111.893 40.4546 111.893 40.4546L114.427 51.1147Z" fill="white"/>
<mask id="mask7_38_4693" style="mask-type:alpha" maskUnits="userSpaceOnUse" x="83" y="40" width="32" height="18">
<path fill-rule="evenodd" clip-rule="evenodd" d="M114.427 51.1147C108.341 53.5516 105.14 58.5041 100.905 57.4706C98.9904 57.0034 83.0101 52.4995 83.01 47.8921C83.01 46.4837 97.6428 47.5602 101.617 47.4774C105.592 47.3945 111.893 40.4546 111.893 40.4546L114.427 51.1147Z" fill="white"/>
</mask>
<g mask="url(#mask7_38_4693)">
<path d="M101.75 44.2047C103.219 45.8968 106.983 45.2646 106.983 45.2646C106.983 45.2646 106.862 51.6603 114.095 53.3393C121.327 55.0183 112.399 42.815 112.399 42.815L104.608 41.0039" fill="#CFCFD0"/>
<path d="M106.983 45.2646C104.373 45.3241 108.524 53.1712 108.641 56.059C108.758 58.9469 114.427 51.1148 114.427 51.1148L113.233 49.0326" fill="#CFCFD0"/>
</g>
<path fill-rule="evenodd" clip-rule="evenodd" d="M114.427 51.1147C108.341 53.5516 105.14 58.5041 100.905 57.4706C98.9904 57.0034 83.0101 52.4995 83.01 47.8921C83.01 46.4837 97.6428 47.5602 101.617 47.4774C105.592 47.3945 111.893 40.4546 111.893 40.4546L114.427 51.1147Z" stroke="#3D3D3C" stroke-width="0.8" stroke-linecap="round" stroke-linejoin="round"/>
<path d="M128.709 178.589C126.485 177.006 131.26 174.616 134.245 174.584C137.231 174.553 143.947 168.465 148.199 168.986C152.451 169.508 173.975 164.181 176.855 163.241C179.735 162.3 162.685 133.099 169.701 123.037C176.718 112.974 190.369 131.053 190.806 174.502C191.045 181.397 153.24 176.632 151.025 177.594C148.81 178.556 137.176 179.47 136.681 179.452C135.406 179.407 135.539 178.251 135.539 178.251C135.539 178.251 130.421 179.359 130.348 178.753C130.348 178.753 129.247 178.971 128.709 178.589Z" fill="white" stroke="#3D3D3C" stroke-width="0.8" stroke-linecap="round" stroke-linejoin="round"/>
<path d="M170.719 130.906C168.18 134.249 159.698 141.605 159.698 141.605C159.698 141.605 151.839 131.511 152.533 131.098C153.228 130.684 162.561 124.51 162.561 124.51L171.264 132.839L170.719 130.906Z" fill="white"/>
<mask id="mask8_38_4693" style="mask-type:alpha" maskUnits="userSpaceOnUse" x="152" y="124" width="20" height="18">
<path fill-rule="evenodd" clip-rule="evenodd" d="M170.719 130.906C168.18 134.249 159.698 141.605 159.698 141.605C159.698 141.605 151.839 131.511 152.533 131.098C153.228 130.684 162.561 124.51 162.561 124.51L171.264 132.839L170.719 130.906Z" fill="white"/>
</mask>
<g mask="url(#mask8_38_4693)">
<path d="M168.72 139.241C163.748 135.064 165.125 137.897 163.061 135.528C160.996 133.16 160.016 138.261 160.016 138.261L159.802 140.557L160.339 141.891L169.187 139.658" fill="#CFCFD0"/>
</g>
<path fill-rule="evenodd" clip-rule="evenodd" d="M170.719 130.906C168.18 134.249 159.698 141.605 159.698 141.605C159.698 141.605 151.839 131.511 152.533 131.098C153.228 130.684 162.561 124.51 162.561 124.51L171.264 132.839L170.719 130.906Z" stroke="#3D3D3C" stroke-width="0.8" stroke-linecap="round" stroke-linejoin="round"/>
<path d="M126.753 58.3566C121.168 61.7958 118.853 67.2218 114.504 66.9254C112.538 66.7913 96.7033 64.9065 95.2469 60.5369C94.7738 59.1175 107.788 59.3737 111.691 58.6145C115.594 57.8552 122.45 48.2837 122.45 48.2837L126.753 58.3566Z" fill="white"/>
<mask id="mask9_38_4693" style="mask-type:alpha" maskUnits="userSpaceOnUse" x="95" y="48" width="32" height="19">
<path fill-rule="evenodd" clip-rule="evenodd" d="M126.753 58.3566C121.168 61.7958 118.853 67.2218 114.504 66.9254C112.538 66.7913 96.7033 64.9065 95.2469 60.5369C94.7738 59.1175 107.788 59.3737 111.691 58.6145C115.594 57.8552 122.45 48.2837 122.45 48.2837L126.753 58.3566Z" fill="white"/>
</mask>
<g mask="url(#mask9_38_4693)">
<path d="M84.2858 61.9531C91.5817 63.8439 89.9078 61.043 94.0535 61.9412C98.1992 62.8394 115.891 55.8982 110.628 50.2316C105.364 44.565 98.2633 57.0228 98.2633 57.0228L84.2858 61.9531Z" fill="#CFCFD0"/>
<path d="M113.089 53.7084C114.824 55.1255 119.709 51.7924 119.709 51.7924C119.709 51.7924 119.39 60.1841 126.802 60.6056C134.214 61.0272 123.348 50.5235 123.348 50.5235L115.364 50.0669" fill="#CFCFD0"/>
</g>
<path fill-rule="evenodd" clip-rule="evenodd" d="M126.753 58.3566C121.168 61.7958 118.853 67.2218 114.504 66.9254C112.538 66.7913 96.7033 64.9065 95.2469 60.5369C94.7738 59.1175 107.788 59.3737 111.691 58.6145C115.594 57.8552 122.45 48.2837 122.45 48.2837L126.753 58.3566Z" stroke="#3D3D3C" stroke-width="0.8" stroke-linecap="round" stroke-linejoin="round"/>
<path d="M173.338 78.6958C178.473 85.015 181.284 90.6001 180.222 99.8753C179.16 109.151 206.081 103.396 206.081 103.396L215.615 99.5536C215.615 99.5536 208.823 60.5227 197.016 62.7872C185.072 65.0779 173.338 78.6958 173.338 78.6958Z" fill="white"/>
<mask id="mask10_38_4693" style="mask-type:alpha" maskUnits="userSpaceOnUse" x="173" y="62" width="43" height="44">
<path fill-rule="evenodd" clip-rule="evenodd" d="M173.338 78.6958C178.473 85.015 181.284 90.6001 180.222 99.8753C179.16 109.151 206.081 103.396 206.081 103.396L215.615 99.5536C215.615 99.5536 208.823 60.5227 197.016 62.7872C185.072 65.0779 173.338 78.6958 173.338 78.6958Z" fill="white"/>
</mask>
<g mask="url(#mask10_38_4693)">
<path d="M177.195 90.739C178.252 89.6453 179.331 89.6221 184.47 91.3559C189.608 93.0897 205.118 94.3624 210.858 90.6692C216.598 86.976 219.56 87.9535 220.581 89.3594C221.602 90.7653 197.644 102.436 197.644 102.436L179.303 95.5182L177.195 90.739Z" fill="#CFCFD0"/>
<path d="M173.338 89.4729C170.216 76.8528 192.656 96.8519 205.583 71.542C218.509 46.2322 172.406 72.4286 172.406 72.4286" fill="#CFCFD0"/>
</g>
<path fill-rule="evenodd" clip-rule="evenodd" d="M173.338 78.6958C178.473 85.015 181.284 90.6001 180.222 99.8753C179.16 109.151 206.081 103.396 206.081 103.396L215.615 99.5536C215.615 99.5536 208.823 60.5227 197.016 62.7872C185.072 65.0779 173.338 78.6958 173.338 78.6958Z" stroke="#3D3D3C" stroke-width="0.8" stroke-linecap="round" stroke-linejoin="round"/>
<path d="M118.821 45.7221C119.255 52.7035 117.929 56.3572 125.724 59.1176C125.724 59.1176 165.108 36.0058 166.948 23.6963C168.788 11.3868 150.359 21.6384 150.359 21.6384L118.821 45.7221Z" fill="#FFCCC7"/>
<path fill-rule="evenodd" clip-rule="evenodd" d="M118.821 45.7221C119.255 52.7035 117.929 56.3572 125.724 59.1176C125.724 59.1176 165.108 36.0058 166.948 23.6963C168.788 11.3868 150.359 21.6384 150.359 21.6384L118.821 45.7221Z" stroke="#3D3D3C" stroke-width="0.8" stroke-linecap="round" stroke-linejoin="round"/>
<path d="M161.188 135.307C161.779 136.487 162.101 137.783 162.129 139.102C162.245 144.377 157.706 148.752 151.992 148.875C146.278 148.998 141.552 144.822 141.436 139.548C141.321 134.273 145.86 129.898 151.574 129.775C153.383 129.73 155.175 130.133 156.79 130.949" fill="white"/>
<path d="M161.188 135.307C161.779 136.487 162.101 137.783 162.129 139.102C162.245 144.377 157.706 148.752 151.992 148.875C146.278 148.998 141.552 144.822 141.436 139.548C141.321 134.273 145.86 129.898 151.574 129.775C153.383 129.73 155.175 130.133 156.79 130.949" stroke="#3D3D3C" stroke-width="0.8" stroke-linecap="round" stroke-linejoin="round"/>
<path d="M158.239 131.255C158.194 129.231 157.215 127.342 155.587 126.138C154.794 123.65 152.619 121.856 150.025 121.551C147.431 121.245 144.899 122.486 143.55 124.722C142.767 124.434 141.937 124.296 141.103 124.314C137.441 124.393 134.538 127.4 134.617 131.03C134.648 132.48 135.162 133.879 136.077 135.004C134.551 136.516 133.609 138.741 133.663 141.204C133.76 145.656 137.071 149.196 141.057 149.11C144.601 149.034 147.484 146.118 148.012 142.344C150.442 141.905 152.426 140.149 153.157 137.79C156.129 137.086 158.308 134.406 158.239 131.255Z" fill="#002B38"/>
<path fill-rule="evenodd" clip-rule="evenodd" d="M158.239 131.255C158.194 129.231 157.215 127.342 155.587 126.138C154.794 123.65 152.619 121.856 150.025 121.551C147.431 121.245 144.899 122.486 143.55 124.722C142.767 124.434 141.937 124.296 141.103 124.314C137.441 124.393 134.538 127.4 134.617 131.03C134.648 132.48 135.162 133.879 136.077 135.004C134.551 136.516 133.609 138.741 133.663 141.204C133.76 145.656 137.071 149.196 141.057 149.11C144.601 149.034 147.484 146.118 148.012 142.344C150.442 141.905 152.426 140.149 153.157 137.79C156.129 137.086 158.308 134.406 158.239 131.255Z" stroke="#3D3D3C" stroke-width="0.8" stroke-linecap="round" stroke-linejoin="round"/>
<path d="M153.123 139.939C151.383 139.655 150.091 138.174 150.047 136.412C150.002 134.393 151.617 132.721 153.653 132.678C155.689 132.634 157.376 134.235 157.42 136.253" fill="white"/>
<path d="M153.123 139.939C151.383 139.655 150.091 138.174 150.047 136.412C150.002 134.393 151.617 132.721 153.653 132.678C155.689 132.634 157.376 134.235 157.42 136.253" stroke="#3D3D3C" stroke-width="0.8" stroke-linecap="round" stroke-linejoin="round"/>
<path d="M178.331 90.5103C194.515 100.042 215.615 88.7104 215.615 88.7104C215.615 88.7104 231.297 133.118 179.816 139.137L170.301 138.04C170.301 138.04 164.485 127.968 159.598 126.035C159.598 126.035 155.702 114.203 169.646 108.101C183.59 101.999 178.331 90.5103 178.331 90.5103Z" fill="#ECEDEE" stroke="#3D3D3C" stroke-width="0.8" stroke-linecap="round" stroke-linejoin="round"/>
<path d="M126.823 182.935C124.598 181.352 129.374 178.962 132.359 178.931C135.344 178.899 142.061 172.811 146.312 173.333C150.564 173.854 176.382 170.132 179.091 168.773C180.481 168.076 168.135 132.324 172.15 126.609C183.433 110.552 192.592 121.472 196.673 175.161C195.196 184.173 151.353 180.979 149.139 181.941C146.924 182.903 135.289 183.816 134.795 183.799C133.52 183.754 133.652 182.597 133.652 182.597C133.652 182.597 127.36 183.317 126.823 182.935Z" fill="white"/>
<mask id="mask11_38_4693" style="mask-type:alpha" maskUnits="userSpaceOnUse" x="126" y="119" width="71" height="65">
<path fill-rule="evenodd" clip-rule="evenodd" d="M126.823 182.935C124.598 181.352 129.374 178.962 132.359 178.931C135.344 178.899 142.061 172.811 146.312 173.333C150.564 173.854 176.382 170.132 179.091 168.773C180.481 168.076 168.135 132.324 172.15 126.609C183.433 110.552 192.592 121.472 196.673 175.161C195.196 184.173 151.353 180.979 149.139 181.941C146.924 182.903 135.289 183.816 134.795 183.799C133.52 183.754 133.652 182.597 133.652 182.597C133.652 182.597 127.36 183.317 126.823 182.935Z" fill="white"/>
</mask>
<g mask="url(#mask11_38_4693)">
<path d="M170.476 163.172C177.035 160.111 174.53 156.86 181.997 156.263C189.463 155.666 197.273 148.858 197.365 146.38C197.457 143.902 175.357 146.97 175.357 146.97L171.541 148.613L169.431 157.168L170.476 163.172Z" fill="#CFCFD0"/>
</g>
<path fill-rule="evenodd" clip-rule="evenodd" d="M126.823 182.935C124.598 181.352 129.374 178.962 132.359 178.931C135.344 178.899 142.061 172.811 146.312 173.333C150.564 173.854 176.382 170.132 179.091 168.773C180.481 168.076 168.135 132.324 172.15 126.609C183.433 110.552 192.592 121.472 196.673 175.161C195.196 184.173 151.353 180.979 149.139 181.941C146.924 182.903 135.289 183.816 134.795 183.799C133.52 183.754 133.652 182.597 133.652 182.597C133.652 182.597 127.36 183.317 126.823 182.935Z" stroke="#3D3D3C" stroke-width="0.8" stroke-linecap="round" stroke-linejoin="round"/>
<path d="M176.552 83.0898C202.531 84.4292 206.289 69.8181 206.289 69.8181C206.289 69.8181 185.575 -7.43301 157.616 1.39064C146.242 4.98032 109.841 40.2178 105.086 41.4355C105.086 41.4355 110.48 58.7906 115.956 53.9327C123.126 47.5718 159.098 25.8517 159.098 25.8517C159.098 25.8517 161.254 76.0781 176.552 83.0898Z" fill="#FFCCC7"/>
<mask id="mask12_38_4693" style="mask-type:alpha" maskUnits="userSpaceOnUse" x="105" y="0" width="102" height="84">
<path fill-rule="evenodd" clip-rule="evenodd" d="M176.552 83.0898C202.531 84.4292 206.289 69.8181 206.289 69.8181C206.289 69.8181 185.575 -7.43301 157.616 1.39064C146.242 4.98032 109.841 40.2178 105.086 41.4355C105.086 41.4355 110.48 58.7906 115.956 53.9327C123.126 47.5718 159.098 25.8517 159.098 25.8517C159.098 25.8517 161.254 76.0781 176.552 83.0898Z" fill="white"/>
</mask>
<g mask="url(#mask12_38_4693)">
<path fill-rule="evenodd" clip-rule="evenodd" d="M108.053 34.4888C106.372 47.7375 119.686 54.4397 119.686 54.4397L108.053 34.4888Z" fill="#F0BBB6"/>
<path d="M108.053 34.4888C106.372 47.7375 119.686 54.4397 119.686 54.4397" stroke="#3D3D3C" stroke-width="0.8" stroke-linecap="round" stroke-linejoin="round"/>
<path fill-rule="evenodd" clip-rule="evenodd" d="M206.289 62.6924C202.479 75.7526 185.372 82.1843 168.804 80.739L206.289 62.6924Z" fill="#F0BBB6"/>
<path d="M206.289 62.6924C202.479 75.7526 185.372 82.1843 168.804 80.739" stroke="#3D3D3C" stroke-width="0.8" stroke-linecap="round" stroke-linejoin="round"/>
<path fill-rule="evenodd" clip-rule="evenodd" d="M160.88 61.4683L170.485 62.6925L176.475 75.4178C176.475 75.4178 169.408 78.8121 165.864 78.3303" fill="#F0BBB6"/>
<path d="M160.88 61.4683L170.485 62.6925L176.475 75.4178C176.475 75.4178 169.408 78.8121 165.864 78.3303" stroke="#3D3D3C" stroke-width="0.8" stroke-linecap="round" stroke-linejoin="round"/>
<ellipse cx="166.916" cy="-2.12563" rx="18.6967" ry="7.70835" fill="#F0BBB6"/>
</g>
<path fill-rule="evenodd" clip-rule="evenodd" d="M176.552 83.0898C202.531 84.4292 206.289 69.8181 206.289 69.8181C206.289 69.8181 185.575 -7.43301 157.616 1.39064C146.242 4.98032 109.841 40.2178 105.086 41.4355C105.086 41.4355 110.48 58.7906 115.956 53.9327C123.126 47.5718 159.098 25.8517 159.098 25.8517C159.098 25.8517 161.254 76.0781 176.552 83.0898Z" stroke="#3D3D3C" stroke-width="0.8" stroke-linecap="round" stroke-linejoin="round"/>
<path d="M169.431 157.168C185.019 157.703 196.673 147.939 196.673 147.939C196.673 147.939 192.236 112.851 175.285 116.481C158.335 120.111 169.431 157.168 169.431 157.168Z" fill="#ECEDEE" stroke="#3D3D3C" stroke-width="0.8" stroke-linecap="round" stroke-linejoin="round"/>
<path d="M185.612 53.8804C194.257 53.0373 198.339 67.8517 198.339 67.8517" stroke="#3D3D3C" stroke-width="0.8" stroke-linecap="round" stroke-linejoin="round"/>
<path d="M155.674 144.702C155.571 144.508 155.396 144.362 155.186 144.297C154.976 144.232 154.749 144.254 154.555 144.357L153.319 145.013C152.914 145.229 152.76 145.73 152.974 146.136C153.077 146.33 153.252 146.476 153.462 146.541C153.672 146.606 153.899 146.584 154.093 146.481L155.329 145.825C155.734 145.609 155.888 145.107 155.674 144.702Z" fill="#4F4F5B"/>
<path d="M150.871 148.089C149.603 145.924 150.259 144.943 151.14 146.245C152.02 147.547 151.7 149.503 150.871 148.089Z" fill="#4F4F5B"/>
<path d="M155.439 147.361C158.591 149.146 160.9 146.641 159.237 145.125L155.439 147.361Z" fill="white"/>
<path d="M155.439 147.361C158.591 149.146 160.9 146.641 159.237 145.125" stroke="#3D3D3C" stroke-width="0.8" stroke-linecap="round" stroke-linejoin="round"/>
<ellipse opacity="0.27" cx="154.838" cy="141.223" rx="2.78406" ry="1.43817" transform="rotate(-38.8834 154.838 141.223)" fill="#CFCFD0"/>
<path d="M156.634 141.958C158.55 141.728 159.477 143.141 159.477 143.141L156.634 141.958Z" fill="white"/>
<path d="M156.634 141.958C158.55 141.728 159.477 143.141 159.477 143.141" stroke="#3D3D3C" stroke-width="0.8" stroke-linecap="round" stroke-linejoin="round"/>
</svg>
