<svg width="234" height="190" viewBox="0 0 234 190" fill="none" xmlns="http://www.w3.org/2000/svg">
<path opacity="0.15" d="M45.4465 131.072C52.4172 134.824 61.3914 137.143 71.3405 137.569C71.3448 137.602 71.3472 137.635 71.3515 137.669C74.3929 161.01 107.855 175.893 146.092 170.91C182.51 166.165 210.122 145.112 210.04 122.954C225.457 115.705 235.092 103.981 233.547 92.1216C232.565 84.5875 227.235 78.2636 219.182 73.8681C223.37 67.4049 225.306 60.4317 224.393 53.4235C221.351 30.0826 187.889 15.1999 149.652 20.1822C125.407 23.3413 105.068 33.7299 94.202 46.8593C84.8551 45.4157 74.5875 45.2622 63.9491 46.6484C25.7124 51.6307 -2.81911 74.5912 0.22223 97.9321C2.43955 114.949 20.8284 127.467 45.4465 131.072Z" fill="#002B38"/>
<circle opacity="0.87" cx="87.2561" cy="92.6756" r="27.0638" fill="white"/>
<circle cx="82.7218" cy="23.7406" r="5.73865" fill="#FFCD07"/>
<circle cx="222.433" cy="124.061" r="2.90475" fill="#002B38"/>
<circle opacity="0.3" cx="29.3029" cy="144.394" r="5.73865" fill="#002B38"/>
<path d="M102.38 73.9917C99.0137 71.9135 90.4675 65.0268 94.2307 63.8542C97.9938 62.6815 100.455 71.8816 115.791 76.8262C131.128 81.7708 133.216 93.4959 125.571 88.4204C117.926 83.3449 120.135 88.6027 108.752 81.6324C98.8626 75.5766 102.38 73.9917 102.38 73.9917Z" fill="#4F4F5B" stroke="#3D3D3C" stroke-width="0.8" stroke-linecap="round" stroke-linejoin="round"/>
<path d="M122.945 114.149C110.124 110.037 76.866 92.1844 89.6609 80.6871C102.456 69.1898 115.207 107.555 171.63 105.463C228.052 103.37 240.596 153.965 211.321 142.989C182.047 132.013 192.175 152.638 148.845 138.997C111.201 127.146 122.945 114.149 122.945 114.149Z" fill="#FFCCC7" stroke="#3D3D3C" stroke-width="0.8" stroke-linecap="round" stroke-linejoin="round"/>
<path d="M42.1382 71.0553C30.6686 63.9745 1.54992 40.5103 14.3719 36.5149C27.1939 32.5194 35.5784 63.8659 87.834 80.7131C140.09 97.5603 147.204 137.511 121.155 120.217C95.1069 102.924 102.635 120.838 63.8498 97.0888C30.154 76.4556 42.1382 71.0553 42.1382 71.0553Z" fill="white" stroke="#3D3D3C" stroke-width="0.8" stroke-linecap="round" stroke-linejoin="round"/>
<path d="M173.638 96.3997C168.838 95.9243 155.785 93.0944 159.274 90.1038C162.764 87.1131 170.398 95.1994 189.84 92.808C209.282 90.4166 217.864 101.226 206.77 99.7879C195.677 98.3495 200.919 102.585 184.716 101.034C170.64 99.6876 173.638 96.3997 173.638 96.3997Z" fill="#ECEDEE" stroke="#3D3D3C" stroke-width="0.8" stroke-linecap="round" stroke-linejoin="round"/>
<path d="M193.677 122.93C194.322 124.569 195.436 125.982 196.879 126.992" stroke="#3D3D3C" stroke-width="0.8" stroke-linecap="round" stroke-linejoin="round"/>
<path d="M61.8905 79.5781L64.0053 83.9217Z" fill="#F5F6F7"/>
<path d="M61.8905 79.5781L64.0053 83.9217" stroke="#3D3D3C" stroke-width="0.8" stroke-linecap="round" stroke-linejoin="round"/>
<path d="M126.847 27.4985L115.762 40.906L125.024 50.4777L133.429 34.7289L126.847 27.4985V27.4985Z" fill="white"/>
<mask id="mask0_38_2621" style="mask-type:alpha" maskUnits="userSpaceOnUse" x="115" y="27" width="19" height="24">
<path fill-rule="evenodd" clip-rule="evenodd" d="M126.847 27.4985L115.762 40.906L125.024 50.4777L133.429 34.7289L126.847 27.4985V27.4985Z" fill="white"/>
</mask>
<g mask="url(#mask0_38_2621)">
<path d="M130.554 50.4118C120.61 42.3935 130.349 38.8158 127.359 32.3942C124.37 25.9726 136.204 35.3215 136.204 35.3215C136.204 35.3215 135.448 40.8766 135.243 41.0667C135.039 41.2567 129.906 47.5015 129.906 47.5015" fill="#CFCFD0"/>
</g>
<path fill-rule="evenodd" clip-rule="evenodd" d="M126.847 27.4985L115.762 40.906L125.024 50.4777L133.429 34.7289L126.847 27.4985V27.4985Z" stroke="#3D3D3C" stroke-width="0.8" stroke-linecap="round" stroke-linejoin="round"/>
<path d="M137.452 25.4753L138.871 37.4996L133.312 38.9878L128.522 32.5553L122.454 33.6108L121.692 24.4038L137.452 25.4753V25.4753Z" fill="white"/>
<mask id="mask1_38_2621" style="mask-type:alpha" maskUnits="userSpaceOnUse" x="121" y="24" width="18" height="15">
<path fill-rule="evenodd" clip-rule="evenodd" d="M137.452 25.4753L138.871 37.4996L133.312 38.9878L128.522 32.5553L122.454 33.6108L121.692 24.4038L137.452 25.4753V25.4753Z" fill="white"/>
</mask>
<g mask="url(#mask1_38_2621)">
<ellipse opacity="0.27" cx="131.924" cy="34.7495" rx="2.45016" ry="2.46629" fill="#CFCFD0"/>
<path d="M134.98 35.6626C136.321 36.7152 137.662 36.072 137.662 36.072Z" fill="white"/>
<path d="M134.98 35.6626C136.321 36.7152 137.662 36.072 137.662 36.072" stroke="#3D3D3C" stroke-width="0.8" stroke-linecap="round" stroke-linejoin="round"/>
<path d="M135.389 35.1491C134.451 35.1325 134.517 36.3483 134.517 36.3483Z" fill="#F5F6F7"/>
<path d="M135.389 35.1491C134.451 35.1325 134.517 36.3483 134.517 36.3483" stroke="#3D3D3C" stroke-width="0.8" stroke-linecap="round" stroke-linejoin="round"/>
<path d="M136.058 31.9759V31.9759C135.876 32.0417 135.675 32.0321 135.5 31.9492C135.324 31.8663 135.189 31.717 135.125 31.5342L134.707 30.3675C134.569 29.9869 134.766 29.5669 135.145 29.4276V29.4276C135.328 29.3617 135.529 29.3713 135.704 29.4542C135.879 29.5371 136.014 29.6865 136.079 29.8692L136.497 31.0359C136.634 31.4166 136.438 31.8365 136.058 31.9759V31.9759Z" fill="#4F4F5B"/>
<path d="M134.928 26.8949C132.822 27.5549 132.671 28.5874 134.014 28.2613C135.357 27.9351 136.304 26.4637 134.928 26.8949Z" fill="#4F4F5B"/>
</g>
<path fill-rule="evenodd" clip-rule="evenodd" d="M137.452 25.4753L138.871 37.4996L133.312 38.9878L128.522 32.5553L122.454 33.6108L121.692 24.4038L137.452 25.4753V25.4753Z" stroke="#3D3D3C" stroke-width="0.8" stroke-linecap="round" stroke-linejoin="round"/>
<path d="M129.409 30.4759L130.385 38.4226C137.685 51.5747 144.953 40.5852 138.596 35.1683C138.596 35.1683 132.425 36.2585 132.337 34.4727C132.248 32.6869 132.337 24.4042 132.337 24.4042L121.337 23.6006L121.692 33.5117L127.673 34.292L126.423 30.0592L129.409 30.4759Z" fill="#ECEDEE" stroke="#3D3D3C" stroke-width="0.8" stroke-linecap="round" stroke-linejoin="round"/>
<path d="M124.442 26.19H132.337C143.336 26.0114 146.416 19.0207 134.85 17.7968C123.318 16.5765 121.144 19.4933 121.366 24.4042" fill="#ECEDEE"/>
<path d="M124.442 26.19H132.337C143.336 26.0114 146.416 19.0207 134.85 17.7968C123.318 16.5765 121.144 19.4933 121.366 24.4042" stroke="#3D3D3C" stroke-width="0.8" stroke-linecap="round" stroke-linejoin="round"/>
<path d="M130.165 36.6312L129.365 29.717C124.575 25.074 124.933 33.3664 130.165 36.6312Z" fill="white" stroke="#3D3D3C" stroke-width="0.8" stroke-linecap="round" stroke-linejoin="round"/>
<path d="M116.718 37.6769C116.718 37.6769 117.688 35.6547 120.233 34.6001C120.233 34.6001 126.495 37.3486 128.08 48.0759L117.391 38.5055L116.718 37.6769Z" fill="white" stroke="#3D3D3C" stroke-width="0.8" stroke-linecap="round" stroke-linejoin="round"/>
<path d="M151.166 67.2072L155.801 65.1402L164.446 61.4233L175.615 60.0674C176.681 61.9318 170.227 62.6663 167.027 65.2651C164.985 66.924 151.166 74.6317 151.166 74.6317V67.2072Z" fill="white"/>
<mask id="mask2_38_2621" style="mask-type:alpha" maskUnits="userSpaceOnUse" x="151" y="60" width="25" height="15">
<path fill-rule="evenodd" clip-rule="evenodd" d="M151.166 67.2072L155.801 65.1402L164.446 61.4233L175.615 60.0674C176.681 61.9318 170.227 62.6663 167.027 65.2651C164.985 66.924 151.166 74.6317 151.166 74.6317V67.2072Z" fill="white"/>
</mask>
<g mask="url(#mask2_38_2621)">
<path d="M161.069 73.9622C159.875 66.674 156.606 64.5317 156.606 64.5317C156.606 64.5317 155.844 70.8005 155.918 71.0289C155.993 71.2573 160.173 72.8352 160.173 72.8352" fill="#CFCFD0"/>
</g>
<path fill-rule="evenodd" clip-rule="evenodd" d="M151.166 67.2072L155.801 65.1402L164.446 61.4233L175.615 60.0674C176.681 61.9318 170.227 62.6663 167.027 65.2651C164.985 66.924 151.166 74.6317 151.166 74.6317V67.2072Z" stroke="#3D3D3C" stroke-width="0.8" stroke-linecap="round" stroke-linejoin="round"/>
<path d="M156.606 64.5318C156.606 64.5318 160.37 71.358 159.079 75.3693L141.849 81.6412C139.39 82.9316 136.363 82.3162 134.603 80.1682L114.398 55.6052L129.52 49.6167L141.719 69.9502L156.606 64.5318Z" fill="#E5FDFF"/>
<mask id="mask3_38_2621" style="mask-type:alpha" maskUnits="userSpaceOnUse" x="114" y="49" width="46" height="34">
<path fill-rule="evenodd" clip-rule="evenodd" d="M156.606 64.5318C156.606 64.5318 160.37 71.358 159.079 75.3693L141.849 81.6412C139.39 82.9316 136.363 82.3162 134.603 80.1682L114.398 55.6052L129.52 49.6167L141.719 69.9502L156.606 64.5318Z" fill="white"/>
</mask>
<g mask="url(#mask3_38_2621)">
<ellipse cx="138.871" cy="83.8499" rx="9.36884" ry="7.04524" fill="#D4E9EB"/>
</g>
<path fill-rule="evenodd" clip-rule="evenodd" d="M156.606 64.5318C156.606 64.5318 160.37 71.358 159.079 75.3693L141.849 81.6412C139.39 82.9316 136.363 82.3162 134.603 80.1682L114.398 55.6052L129.52 49.6167L141.719 69.9502L156.606 64.5318Z" stroke="#3D3D3C" stroke-width="0.8" stroke-linecap="round" stroke-linejoin="round"/>
<path d="M155.068 144.508C155.316 144.883 160.777 161.996 160.777 161.996L170.828 157L166.113 134.89L155.068 144.508Z" fill="white"/>
<mask id="mask4_38_2621" style="mask-type:alpha" maskUnits="userSpaceOnUse" x="155" y="134" width="16" height="28">
<path fill-rule="evenodd" clip-rule="evenodd" d="M155.068 144.508C155.316 144.883 160.777 161.996 160.777 161.996L170.828 157L166.113 134.89L155.068 144.508Z" fill="white"/>
</mask>
<g mask="url(#mask4_38_2621)">
<path d="M154.127 158.339C159.349 157.536 169.99 148.443 169.99 148.443L157.113 146.017L152.485 154.282" fill="#CFCFD0"/>
</g>
<path fill-rule="evenodd" clip-rule="evenodd" d="M155.068 144.508C155.316 144.883 160.777 161.996 160.777 161.996L170.828 157L166.113 134.89L155.068 144.508Z" stroke="#3D3D3C" stroke-width="0.8" stroke-linecap="round" stroke-linejoin="round"/>
<path d="M164.251 166.431L163.055 167.832L164.251 169.554L175.606 165.682V161.997" fill="#4F4F5B"/>
<path d="M164.251 166.431L163.055 167.832L164.251 169.554L175.606 165.682V161.997" stroke="#3D3D3C" stroke-width="0.8" stroke-linecap="round" stroke-linejoin="round"/>
<path d="M159.973 159.485C159.973 159.485 158.744 164.552 163.055 167.832L193.534 157.903C194.697 149.838 175.166 160.772 171.036 152.612L159.973 159.485Z" fill="#4F4F5B" stroke="#3D3D3C" stroke-width="0.8" stroke-linecap="round" stroke-linejoin="round"/>
<path d="M41.4851 118.652C41.0398 118.612 24.3778 112.191 24.3778 112.191L21.9586 123.2L42.0225 133.33L41.4851 118.652Z" fill="white"/>
<mask id="mask5_38_2621" style="mask-type:alpha" maskUnits="userSpaceOnUse" x="21" y="112" width="22" height="22">
<path fill-rule="evenodd" clip-rule="evenodd" d="M41.4851 118.652C41.0398 118.612 24.3778 112.191 24.3778 112.191L21.9586 123.2L42.0225 133.33L41.4851 118.652Z" fill="white"/>
</mask>
<g mask="url(#mask5_38_2621)">
<path d="M35.2439 110.077C23.9493 123.087 36.0455 135.863 36.0455 135.863L42.0227 115.162L27.4875 109.351" fill="#CFCFD0"/>
</g>
<path fill-rule="evenodd" clip-rule="evenodd" d="M41.4851 118.652C41.0398 118.612 24.3778 112.191 24.3778 112.191L21.9586 123.2L42.0225 133.33L41.4851 118.652Z" stroke="#3D3D3C" stroke-width="0.8" stroke-linecap="round" stroke-linejoin="round"/>
<path d="M18.7722 112.143L18.4356 110.328L16.3548 110.189L12.2504 121.517L15.1028 123.822" fill="#4F4F5B"/>
<path d="M18.7722 112.143L18.4356 110.328L16.3548 110.189L12.2504 121.517L15.1028 123.822" stroke="#3D3D3C" stroke-width="0.8" stroke-linecap="round" stroke-linejoin="round"/>
<path d="M27.4875 113.387C27.4875 113.387 23.6711 108.998 18.4357 110.328L7.05846 140.443C12.5742 146.4 16.3257 124.243 25.2259 126.107L27.4875 113.387Z" fill="#4F4F5B" stroke="#3D3D3C" stroke-width="0.8" stroke-linecap="round" stroke-linejoin="round"/>
<path d="M85.4795 110.331L140.82 108.63L156.432 152.567C156.432 152.567 166.747 153.985 173.995 144.347L159.082 97.1174C157.806 93.0481 154.385 90.0174 150.191 89.2402L96.7712 79.4331L85.4795 110.331Z" fill="white"/>
<mask id="mask6_38_2621" style="mask-type:alpha" maskUnits="userSpaceOnUse" x="85" y="79" width="89" height="74">
<path fill-rule="evenodd" clip-rule="evenodd" d="M85.4795 110.331L140.82 108.63L156.432 152.567C156.432 152.567 166.747 153.985 173.995 144.347L159.082 97.1174C157.806 93.0481 154.385 90.0174 150.191 89.2402L96.7712 79.4331L85.4795 110.331Z" fill="white"/>
</mask>
<g mask="url(#mask6_38_2621)">
<g opacity="0.29">
<rect x="82.0892" y="55.561" width="6.64089" height="120.952" fill="#4F4F5B" stroke="#3D3D3C" stroke-width="0.8" stroke-linecap="round" stroke-linejoin="round"/>
<rect x="94.7545" y="55.561" width="6.64089" height="120.952" fill="#4F4F5B" stroke="#3D3D3C" stroke-width="0.8" stroke-linecap="round" stroke-linejoin="round"/>
<rect x="107.419" y="55.561" width="6.64089" height="120.952" fill="#4F4F5B" stroke="#3D3D3C" stroke-width="0.8" stroke-linecap="round" stroke-linejoin="round"/>
<rect x="120.084" y="55.561" width="6.64089" height="120.952" fill="#4F4F5B" stroke="#3D3D3C" stroke-width="0.8" stroke-linecap="round" stroke-linejoin="round"/>
<rect x="132.749" y="55.561" width="6.64089" height="120.952" fill="#4F4F5B" stroke="#3D3D3C" stroke-width="0.8" stroke-linecap="round" stroke-linejoin="round"/>
<rect x="145.414" y="55.561" width="6.64089" height="120.952" fill="#4F4F5B" stroke="#3D3D3C" stroke-width="0.8" stroke-linecap="round" stroke-linejoin="round"/>
<rect x="158.08" y="55.561" width="6.64089" height="120.952" fill="#4F4F5B" stroke="#3D3D3C" stroke-width="0.8" stroke-linecap="round" stroke-linejoin="round"/>
<rect x="170.745" y="55.561" width="6.64089" height="120.952" fill="#4F4F5B" stroke="#3D3D3C" stroke-width="0.8" stroke-linecap="round" stroke-linejoin="round"/>
</g>
<g opacity="0.27">
<rect x="189.818" y="80.8232" width="6.68462" height="120.16" transform="rotate(90 189.818 80.8232)" fill="#4F4F5B" stroke="#3D3D3C" stroke-width="0.8" stroke-linecap="round" stroke-linejoin="round"/>
<rect x="189.818" y="93.5713" width="6.68462" height="120.16" transform="rotate(90 189.818 93.5713)" fill="#4F4F5B" stroke="#3D3D3C" stroke-width="0.8" stroke-linecap="round" stroke-linejoin="round"/>
<rect x="189.818" y="106.32" width="6.68462" height="120.16" transform="rotate(90 189.818 106.32)" fill="#4F4F5B" stroke="#3D3D3C" stroke-width="0.8" stroke-linecap="round" stroke-linejoin="round"/>
<rect x="189.818" y="119.068" width="6.68462" height="120.16" transform="rotate(90 189.818 119.068)" fill="#4F4F5B" stroke="#3D3D3C" stroke-width="0.8" stroke-linecap="round" stroke-linejoin="round"/>
<rect x="189.818" y="131.817" width="6.68462" height="120.16" transform="rotate(90 189.818 131.817)" fill="#4F4F5B" stroke="#3D3D3C" stroke-width="0.8" stroke-linecap="round" stroke-linejoin="round"/>
<rect x="189.818" y="144.565" width="6.68462" height="120.16" transform="rotate(90 189.818 144.565)" fill="#4F4F5B" stroke="#3D3D3C" stroke-width="0.8" stroke-linecap="round" stroke-linejoin="round"/>
</g>
</g>
<path fill-rule="evenodd" clip-rule="evenodd" d="M85.4795 110.331L140.82 108.63L156.432 152.567C156.432 152.567 166.747 153.985 173.995 144.347L159.082 97.1174C157.806 93.0481 154.385 90.0174 150.191 89.2402L96.7712 79.4331L85.4795 110.331Z" stroke="#3D3D3C" stroke-width="0.8" stroke-linecap="round" stroke-linejoin="round"/>
<path d="M108.752 81.6324L76.7202 77.8452L73.5862 128.055L35.4567 116.226C35.4567 116.226 29.7112 123.849 32.5839 134.89L77.2508 147.435C84.1772 149.38 91.3857 145.433 93.5272 138.523L108.752 81.6324" fill="white"/>
<mask id="mask7_38_2621" style="mask-type:alpha" maskUnits="userSpaceOnUse" x="31" y="77" width="78" height="71">
<path fill-rule="evenodd" clip-rule="evenodd" d="M108.752 81.6324L76.7202 77.8452L73.5862 128.055L35.4567 116.226C35.4567 116.226 29.7112 123.849 32.5839 134.89L77.2508 147.435C84.1772 149.38 91.3857 145.433 93.5272 138.523L108.752 81.6324" fill="white"/>
</mask>
<g mask="url(#mask7_38_2621)">
<g opacity="0.29">
<rect x="35.2827" y="52.4116" width="6.64089" height="120.952" fill="#4F4F5B" stroke="#3D3D3C" stroke-width="0.8" stroke-linecap="round" stroke-linejoin="round"/>
<rect x="47.9477" y="52.4116" width="6.64089" height="120.952" fill="#4F4F5B" stroke="#3D3D3C" stroke-width="0.8" stroke-linecap="round" stroke-linejoin="round"/>
<rect x="60.6126" y="52.4116" width="6.64089" height="120.952" fill="#4F4F5B" stroke="#3D3D3C" stroke-width="0.8" stroke-linecap="round" stroke-linejoin="round"/>
<rect x="73.2778" y="52.4116" width="6.64089" height="120.952" fill="#4F4F5B" stroke="#3D3D3C" stroke-width="0.8" stroke-linecap="round" stroke-linejoin="round"/>
<rect x="85.943" y="52.4116" width="6.64089" height="120.952" fill="#4F4F5B" stroke="#3D3D3C" stroke-width="0.8" stroke-linecap="round" stroke-linejoin="round"/>
<rect x="98.6081" y="52.4116" width="6.64089" height="120.952" fill="#4F4F5B" stroke="#3D3D3C" stroke-width="0.8" stroke-linecap="round" stroke-linejoin="round"/>
</g>
<g opacity="0.27">
<rect x="130.346" y="77.6738" width="6.68462" height="120.16" transform="rotate(90 130.346 77.6738)" fill="#4F4F5B" stroke="#3D3D3C" stroke-width="0.8" stroke-linecap="round" stroke-linejoin="round"/>
<rect x="130.346" y="90.4229" width="6.68462" height="120.16" transform="rotate(90 130.346 90.4229)" fill="#4F4F5B" stroke="#3D3D3C" stroke-width="0.8" stroke-linecap="round" stroke-linejoin="round"/>
<rect x="130.346" y="103.171" width="6.68462" height="120.16" transform="rotate(90 130.346 103.171)" fill="#4F4F5B" stroke="#3D3D3C" stroke-width="0.8" stroke-linecap="round" stroke-linejoin="round"/>
<rect x="130.346" y="115.92" width="6.68462" height="120.16" transform="rotate(90 130.346 115.92)" fill="#4F4F5B" stroke="#3D3D3C" stroke-width="0.8" stroke-linecap="round" stroke-linejoin="round"/>
<rect x="130.346" y="128.668" width="6.68462" height="120.16" transform="rotate(90 130.346 128.668)" fill="#4F4F5B" stroke="#3D3D3C" stroke-width="0.8" stroke-linecap="round" stroke-linejoin="round"/>
<rect x="130.346" y="141.417" width="6.68462" height="120.16" transform="rotate(90 130.346 141.417)" fill="#4F4F5B" stroke="#3D3D3C" stroke-width="0.8" stroke-linecap="round" stroke-linejoin="round"/>
</g>
</g>
<path d="M108.752 81.6324L76.7202 77.8452L73.5862 128.055L35.4567 116.226C35.4567 116.226 29.7112 123.849 32.5839 134.89L77.2508 147.435C84.1772 149.38 91.3857 145.433 93.5272 138.523L108.752 81.6324" stroke="#3D3D3C" stroke-width="0.8" stroke-linecap="round" stroke-linejoin="round"/>
<path d="M129.814 50.1059C129.814 50.1059 123.688 35.6674 111.142 36.509C94.561 37.6214 73.3978 58.2845 74.9545 79.433C74.9545 79.433 94.6409 90.7463 110.806 82.6107C107.589 68.8513 121.774 66.1861 127.359 57.6391" fill="#E5FDFF"/>
<mask id="mask8_38_2621" style="mask-type:alpha" maskUnits="userSpaceOnUse" x="74" y="36" width="56" height="50">
<path fill-rule="evenodd" clip-rule="evenodd" d="M129.814 50.1059C129.814 50.1059 123.688 35.6674 111.142 36.509C94.5609 37.6214 73.3977 58.2845 74.9544 79.433C74.9544 79.433 94.6409 90.7463 110.806 82.6107C107.589 68.8513 121.774 66.1861 127.359 57.6391" fill="white"/>
</mask>
<g mask="url(#mask8_38_2621)">
<path d="M103.512 53.9093C104.316 67.3495 110.871 84.9676 76.6404 79.4273C42.4096 73.8869 106.894 94.5242 106.894 94.5242C106.894 94.5242 115.387 91.3184 116.718 91.5187C118.049 91.7191 127.184 78.131 127.184 78.131C127.184 78.131 125.994 66.5236 118.746 50.4777C114.733 41.5957 108.752 55.9673 108.752 55.9673" fill="#D4E9EB"/>
<path d="M125.994 43.957C125.994 43.957 125.704 49.2729 123.857 52.4677L126.219 54.8615L129.52 49.6161" fill="white"/>
<path d="M125.994 43.957C125.994 43.957 125.704 49.2729 123.857 52.4677L126.219 54.8615L129.52 49.6161" stroke="#3D3D3C" stroke-width="0.8" stroke-linecap="round" stroke-linejoin="round"/>
</g>
<path d="M129.814 50.1059C129.814 50.1059 123.688 35.6674 111.142 36.509C94.561 37.6214 73.3978 58.2845 74.9545 79.433C74.9545 79.433 94.6409 90.7463 110.806 82.6107C107.589 68.8513 121.774 66.1861 127.359 57.6391" stroke="#3D3D3C" stroke-width="0.8" stroke-linecap="round" stroke-linejoin="round"/>
<path d="M152.523 62.0407L151.166 63.9524L152.523 64.7842L179.35 59.3124C179.574 59.2655 179.767 59.1219 179.877 58.9198C179.986 58.7178 180.001 58.4778 179.917 58.2638L179.509 57.215L169.924 55.9673L152.819 62.8899L152.523 62.0407Z" fill="#4F4F5B" stroke="#3D3D3C" stroke-width="0.8" stroke-linecap="round" stroke-linejoin="round"/>
<path d="M173.306 28.5341C173.225 28.5298 173.145 28.558 173.085 28.6126C173.025 28.6671 172.989 28.7435 172.985 28.8247L171.913 54.5842L179.228 57.9468L180.617 28.8639L173.306 28.5341Z" fill="#002B38"/>
<path fill-rule="evenodd" clip-rule="evenodd" d="M173.306 28.5341C173.225 28.5298 173.145 28.558 173.085 28.6126C173.025 28.6671 172.989 28.7435 172.985 28.8247L171.913 54.5841L179.228 57.9468L180.617 28.8639L173.306 28.5341Z" stroke="#3D3D3C" stroke-width="0.8" stroke-linecap="round" stroke-linejoin="round"/>
<path d="M181.153 29.441C181.164 29.1338 180.924 28.8758 180.617 28.8638H180.617L178.855 57.7753L179.917 58.2637L181.153 29.441Z" fill="#4F4F5B" stroke="#3D3D3C" stroke-width="0.8" stroke-linecap="round" stroke-linejoin="round"/>
<path d="M150.257 59.9594L151.166 63.9519L179.917 58.2633L171.825 54.5527L150.257 59.9594V59.9594Z" fill="#CFCFD0" stroke="#3D3D3C" stroke-width="0.8" stroke-linecap="round" stroke-linejoin="round"/>
<path d="M85.0711 70.7427L91.236 63.4247C91.236 63.4247 124.265 60.0888 127.821 46.4644L128.761 48.076C123.003 68.5102 94.9404 71.8162 94.9404 71.8162L85.0711 70.7427Z" fill="white" stroke="#3D3D3C" stroke-width="0.8" stroke-linecap="round" stroke-linejoin="round"/>
<path d="M136.325 65.4354C136.325 65.4354 141.152 62.5352 142.649 61.2923C144.145 60.0493 147.251 56.6972 147.925 56.5088C148.598 56.3205 152.939 54.8139 153.762 55.1906C154.585 55.5672 159.749 56.4524 159.749 56.4524C160.404 58.4863 154.361 57.2998 154.361 57.2998C154.361 57.2998 157.279 59.1077 157.317 59.4844C157.354 59.861 157.204 59.9364 157.204 59.9364L158.318 60.4072C159.103 62.1021 153.435 61.2829 153.435 61.2829L147.775 66.3959L134.941 71.0286L136.325 65.4354Z" fill="white"/>
<mask id="mask9_38_2621" style="mask-type:alpha" maskUnits="userSpaceOnUse" x="134" y="55" width="26" height="17">
<path fill-rule="evenodd" clip-rule="evenodd" d="M136.325 65.4354C136.325 65.4354 141.152 62.5352 142.649 61.2923C144.145 60.0493 147.251 56.6972 147.925 56.5088C148.598 56.3205 152.939 54.8139 153.762 55.1906C154.585 55.5672 159.749 56.4524 159.749 56.4524C160.404 58.4863 154.361 57.2998 154.361 57.2998C154.361 57.2998 157.279 59.1077 157.317 59.4844C157.354 59.861 157.204 59.9364 157.204 59.9364L158.318 60.4072C159.103 62.1021 153.435 61.2829 153.435 61.2829L147.775 66.3959L134.941 71.0286L136.325 65.4354Z" fill="white"/>
</mask>
<g mask="url(#mask9_38_2621)">
<path d="M143.229 71.8156C144.871 69.2783 143.077 62.8309 141.237 62.3229C139.397 61.8149 138.85 71.5825 138.85 71.5825L143.08 72.4841" fill="#CFCFD0"/>
</g>
<path fill-rule="evenodd" clip-rule="evenodd" d="M136.325 65.4354C136.325 65.4354 141.152 62.5352 142.649 61.2923C144.145 60.0493 147.251 56.6972 147.925 56.5088C148.598 56.3205 152.939 54.8139 153.762 55.1906C154.585 55.5672 159.749 56.4524 159.749 56.4524C160.404 58.4863 154.361 57.2998 154.361 57.2998C154.361 57.2998 157.279 59.1077 157.317 59.4844C157.354 59.861 157.204 59.9364 157.204 59.9364L158.318 60.4072C159.103 62.1021 153.435 61.2829 153.435 61.2829L147.775 66.3959L134.941 71.0286L136.325 65.4354Z" stroke="#3D3D3C" stroke-width="0.8" stroke-linecap="round" stroke-linejoin="round"/>
<path d="M116.718 45.5303L124.596 65.3966L141.237 62.3232C141.237 62.3232 143.799 67.0799 142.228 74.6317L122.371 79.7829C119.226 81.1857 115.538 79.7992 114.096 76.6721L102.65 54.1561" fill="#E5FDFF"/>
<mask id="mask10_38_2621" style="mask-type:alpha" maskUnits="userSpaceOnUse" x="102" y="45" width="41" height="36">
<path fill-rule="evenodd" clip-rule="evenodd" d="M116.718 45.5303L124.596 65.3966L141.237 62.3232C141.237 62.3232 143.799 67.0799 142.228 74.6317L122.371 79.7829C119.226 81.1857 115.538 79.7992 114.096 76.6721L102.65 54.1561" fill="white"/>
</mask>
<g mask="url(#mask10_38_2621)">
<ellipse cx="117.71" cy="80.6184" rx="10.3692" ry="6.88942" fill="#D4E9EB"/>
</g>
<path d="M116.718 45.5303L124.596 65.3966L141.237 62.3232C141.237 62.3232 143.799 67.0799 142.228 74.6317L122.371 79.7829C119.226 81.1857 115.538 79.7992 114.096 76.6721L102.65 54.1561" stroke="#3D3D3C" stroke-width="0.8" stroke-linecap="round" stroke-linejoin="round"/>
<path d="M137.206 30.1157C140.324 30.7879 139.843 33.6935 137.863 33.7192Z" fill="white"/>
<path d="M137.206 30.1157C140.324 30.7879 139.843 33.6935 137.863 33.7192" stroke="#3D3D3C" stroke-width="0.8" stroke-linecap="round" stroke-linejoin="round"/>
<path d="M18.1366 128.247C17.8225 129.293 17.8179 130.408 18.1234 131.457" stroke="#3D3D3C" stroke-width="0.8" stroke-linecap="round" stroke-linejoin="round"/>
<path d="M19.8487 128.04L22.5993 130.809" stroke="#3D3D3C" stroke-width="0.8" stroke-linecap="round" stroke-linejoin="round"/>
<path d="M172.666 152.964C172.49 154.616 172.2 156.253 171.797 157.864" stroke="#3D3D3C" stroke-width="0.8" stroke-linecap="round" stroke-linejoin="round"/>
<path d="M176.427 154.239C175.597 155.094 174.583 155.748 173.463 156.152" stroke="#3D3D3C" stroke-width="0.8" stroke-linecap="round" stroke-linejoin="round"/>
<path d="M143.84 104.612L140.667 108.446Z" fill="#F5F6F7"/>
<path d="M143.84 104.612L140.667 108.446" stroke="#3D3D3C" stroke-width="0.8" stroke-linecap="round" stroke-linejoin="round"/>
<path d="M74.3714 127.639C74.8366 128.915 75.5904 130.065 76.574 131.001Z" fill="#F5F6F7"/>
<path d="M74.3714 127.639C74.8366 128.915 75.5904 130.065 76.574 131.001" stroke="#3D3D3C" stroke-width="0.8" stroke-linecap="round" stroke-linejoin="round"/>
<path d="M122.478 67.1445L125.003 66.0483Z" fill="#F5F6F7"/>
<path d="M122.478 67.1445L125.003 66.0483" stroke="#3D3D3C" stroke-width="0.8" stroke-linecap="round" stroke-linejoin="round"/>
<path d="M86.8604 53.9243C87.0913 54.7328 87.4654 55.4934 87.965 56.1697Z" fill="#F5F6F7"/>
<path d="M86.8604 53.9243C87.0913 54.7328 87.4654 55.4934 87.965 56.1697" stroke="#3D3D3C" stroke-width="0.8" stroke-linecap="round" stroke-linejoin="round"/>
<path d="M127.284 22.1846C128.047 22.3113 128.831 22.238 129.557 21.9717Z" fill="#F5F6F7"/>
<path d="M127.284 22.1846C128.047 22.3113 128.831 22.238 129.557 21.9717" stroke="#3D3D3C" stroke-width="0.8" stroke-linecap="round" stroke-linejoin="round"/>
<path d="M146.803 59.8853L148.072 60.5242Z" fill="#F5F6F7"/>
<path d="M146.803 59.8853L148.072 60.5242" stroke="#3D3D3C" stroke-width="0.8" stroke-linecap="round" stroke-linejoin="round"/>
<path d="M105.249 59.1396L113.068 73.9618Z" fill="#F5F6F7"/>
<path d="M105.249 59.1396L113.068 73.9618" stroke="#3D3D3C" stroke-width="0.8" stroke-linecap="round" stroke-linejoin="round"/>
<path d="M111.342 136.807C126.989 134.834 135.651 141.805 130.692 152.375C125.733 162.944 109.029 173.112 93.3812 175.085C77.7285 177.058 69.0666 170.087 74.0257 159.518C78.9848 148.949 95.6888 138.78 111.342 136.807Z" fill="#E5FDFF" stroke="#3D3D3C" stroke-width="0.8" stroke-linecap="round" stroke-linejoin="round"/>
<path d="M137.785 161.535C137.8 161.423 137.801 161.316 137.812 161.205C137.827 161.044 137.841 160.883 137.849 160.724C137.854 160.645 137.866 160.563 137.868 160.485C137.872 160.356 137.861 160.232 137.86 160.106C137.858 159.957 137.858 159.808 137.85 159.662C137.846 159.603 137.85 159.542 137.845 159.484C137.834 159.336 137.807 159.194 137.789 159.049C137.772 158.913 137.759 158.776 137.736 158.643C137.73 158.604 137.728 158.564 137.721 158.525C137.69 158.358 137.641 158.198 137.6 158.034C137.57 157.911 137.546 157.785 137.51 157.665C137.503 157.642 137.5 157.618 137.493 157.595C137.406 157.311 137.303 157.032 137.186 156.759L131.403 143.308C131.528 143.604 131.637 143.906 131.727 144.214C131.763 144.334 131.787 144.46 131.817 144.583C131.867 144.784 131.917 144.985 131.953 145.193C131.976 145.326 131.989 145.462 132.006 145.597C132.031 145.8 132.055 146.003 132.066 146.211C132.075 146.357 132.075 146.506 132.077 146.655C132.079 146.859 132.077 147.064 132.066 147.273C132.058 147.432 132.044 147.593 132.028 147.754C132.008 147.96 131.982 148.168 131.95 148.378C131.923 148.553 131.892 148.73 131.856 148.908C131.816 149.111 131.768 149.316 131.716 149.523C131.664 149.728 131.607 149.935 131.545 150.143C131.454 150.446 131.361 150.749 131.245 151.058C131.24 151.073 131.236 151.087 131.23 151.101C131.073 151.52 130.894 151.944 130.692 152.375C130.532 152.716 130.358 153.057 130.174 153.397C130.087 153.559 129.99 153.719 129.897 153.881C129.8 154.048 129.708 154.216 129.606 154.383C129.508 154.544 129.4 154.705 129.296 154.866C129.189 155.032 129.086 155.199 128.973 155.365C128.761 155.678 128.54 155.99 128.31 156.3C128.29 156.326 128.269 156.352 128.249 156.378C128.036 156.663 127.815 156.947 127.587 157.23C127.503 157.334 127.413 157.438 127.326 157.542C127.158 157.745 126.988 157.949 126.812 158.151C126.706 158.272 126.595 158.393 126.486 158.514C126.319 158.699 126.152 158.885 125.978 159.07C125.884 159.171 125.786 159.271 125.689 159.372C125.506 159.563 125.319 159.753 125.129 159.943C125.024 160.048 124.917 160.153 124.81 160.258C124.614 160.448 124.415 160.638 124.213 160.827C124.11 160.922 124.01 161.018 123.906 161.113C123.653 161.344 123.396 161.574 123.134 161.801C123.079 161.85 123.025 161.899 122.969 161.948C122.635 162.236 122.294 162.522 121.947 162.805C121.879 162.86 121.808 162.914 121.74 162.969C121.459 163.196 121.175 163.421 120.885 163.644C120.755 163.743 120.622 163.841 120.491 163.939C120.257 164.116 120.024 164.292 119.785 164.465C119.634 164.575 119.479 164.682 119.327 164.791C119.106 164.948 118.885 165.105 118.659 165.259C118.439 165.411 118.213 165.561 117.989 165.71C117.801 165.835 117.615 165.961 117.424 166.085C117.193 166.234 116.958 166.381 116.723 166.529C116.542 166.642 116.363 166.757 116.18 166.869C115.577 167.238 114.964 167.598 114.339 167.948C114.197 168.029 114.054 168.108 113.91 168.188C113.417 168.46 112.918 168.728 112.414 168.989C112.338 169.029 112.262 169.07 112.186 169.109C111.649 169.384 111.106 169.652 110.557 169.911C110.399 169.986 110.24 170.058 110.082 170.132C109.702 170.309 109.319 170.482 108.934 170.652C108.748 170.735 108.561 170.816 108.373 170.897C108.011 171.052 107.646 171.204 107.28 171.352C107.105 171.424 106.93 171.497 106.753 171.566C106.314 171.74 105.873 171.909 105.43 172.072C105.339 172.105 105.249 172.141 105.158 172.174C104.629 172.367 104.097 172.552 103.562 172.729C103.413 172.779 103.262 172.825 103.112 172.874C102.722 173 102.332 173.123 101.941 173.241C101.748 173.299 101.554 173.354 101.361 173.41C101 173.515 100.638 173.616 100.275 173.713C100.076 173.767 99.8761 173.819 99.6763 173.871C99.281 173.972 98.8854 174.068 98.4894 174.159C98.3221 174.198 98.1549 174.239 97.9875 174.276C97.4012 174.407 96.8148 174.527 96.2285 174.638C96.1314 174.656 96.0345 174.671 95.9374 174.688C95.3917 174.787 94.8466 174.875 94.3022 174.954C93.9951 174.999 93.6877 175.046 93.3812 175.085C92.7518 175.164 92.1351 175.227 91.5286 175.278C91.4047 175.289 91.2847 175.294 91.1618 175.303C90.7126 175.337 90.2698 175.363 89.8335 175.382C89.6552 175.389 89.4789 175.394 89.303 175.399C88.9331 175.409 88.5696 175.412 88.2099 175.411C88.0064 175.411 87.8019 175.411 87.6017 175.407C87.2297 175.399 86.8662 175.383 86.5059 175.363C86.3465 175.355 86.1831 175.35 86.0261 175.339C85.5157 175.303 85.0155 175.257 84.5302 175.197C84.4769 175.19 84.4272 175.18 84.3742 175.174C83.9435 175.118 83.523 175.053 83.1125 174.978C82.9582 174.95 82.8104 174.916 82.6591 174.886C82.3571 174.824 82.0583 174.761 81.7684 174.689C81.6042 174.648 81.4441 174.605 81.2838 174.561C81.016 174.488 80.7536 174.41 80.4967 174.329C80.3409 174.279 80.1861 174.228 80.0346 174.176C79.7781 174.086 79.5297 173.99 79.2852 173.891C79.1519 173.837 79.0157 173.786 78.8858 173.729C78.6031 173.606 78.332 173.474 78.0667 173.338C77.9889 173.298 77.9059 173.262 77.8298 173.221C77.4942 173.041 77.1738 172.851 76.8686 172.651C76.7891 172.599 76.7173 172.542 76.6399 172.489C76.4193 172.337 76.2036 172.181 76.0001 172.018C75.9005 171.939 75.8074 171.855 75.712 171.773C75.5424 171.626 75.3773 171.478 75.2211 171.324C75.1277 171.232 75.0376 171.138 74.9491 171.044C74.803 170.888 74.6646 170.727 74.5317 170.564C74.4531 170.467 74.3736 170.371 74.2997 170.271C74.1657 170.091 74.0432 169.906 73.9249 169.718C73.8688 169.629 73.8078 169.542 73.7553 169.451C73.5916 169.171 73.4445 168.881 73.315 168.584L79.0982 182.034C79.2278 182.332 79.3748 182.622 79.5385 182.902C79.591 182.993 79.6519 183.079 79.7081 183.168C79.8264 183.356 79.9489 183.542 80.0827 183.722C80.1568 183.821 80.2362 183.918 80.3149 184.014C80.4477 184.178 80.5861 184.338 80.7323 184.494C80.8208 184.589 80.9108 184.683 81.0041 184.774C81.1605 184.928 81.3254 185.077 81.495 185.223C81.5906 185.305 81.6836 185.389 81.7834 185.469C81.9865 185.631 82.2016 185.786 82.4218 185.938C82.4997 185.992 82.572 186.049 82.6521 186.102C82.9572 186.302 83.2773 186.492 83.6125 186.672C83.6896 186.713 83.7737 186.75 83.8524 186.79C84.1167 186.925 84.3867 187.057 84.6686 187.179C84.7986 187.236 84.9349 187.288 85.0686 187.342C85.3132 187.441 85.5615 187.537 85.8182 187.626C85.9696 187.679 86.124 187.729 86.2795 187.779C86.536 187.861 86.7981 187.938 87.0658 188.011C87.2268 188.055 87.3874 188.099 87.5522 188.14C87.8417 188.211 88.1396 188.275 88.441 188.336C88.5928 188.367 88.7409 188.4 88.8957 188.429C89.3075 188.504 89.73 188.569 90.163 188.625C90.2138 188.631 90.2615 188.641 90.3126 188.647C90.7982 188.707 91.2985 188.753 91.8092 188.789C91.9658 188.8 92.1285 188.805 92.2875 188.814C92.6487 188.833 93.0129 188.85 93.3859 188.857C93.5851 188.862 93.7883 188.861 93.9908 188.862C94.1917 188.862 94.387 188.869 94.5911 188.866C94.7537 188.864 94.9227 188.854 95.0872 188.849C95.2626 188.845 95.4382 188.839 95.6161 188.832C96.052 188.814 96.4949 188.788 96.9448 188.754C97.0678 188.745 97.1877 188.739 97.3118 188.728C97.3479 188.726 97.3825 188.724 97.4187 188.721C97.9903 188.672 98.5722 188.61 99.1643 188.536C99.3792 188.508 99.5943 188.48 99.8095 188.449C99.9013 188.437 99.9935 188.418 100.085 188.405C100.63 188.325 101.175 188.236 101.72 188.138C101.794 188.125 101.866 188.116 101.94 188.103C101.964 188.098 101.988 188.092 102.012 188.088C102.597 187.979 103.183 187.858 103.769 187.728C103.813 187.718 103.857 187.71 103.901 187.7C104.026 187.672 104.151 187.638 104.276 187.609C104.67 187.517 105.065 187.422 105.459 187.321C105.551 187.298 105.643 187.278 105.734 187.254C105.843 187.226 105.95 187.193 106.059 187.163C106.421 187.066 106.782 186.966 107.142 186.861C107.266 186.825 107.39 186.794 107.514 186.757C107.585 186.737 107.654 186.712 107.725 186.691C108.116 186.574 108.505 186.45 108.894 186.324C109.015 186.285 109.137 186.25 109.258 186.21C109.287 186.2 109.316 186.19 109.345 186.18C109.88 186.002 110.412 185.817 110.942 185.625C110.953 185.621 110.965 185.617 110.976 185.613C111.054 185.584 111.131 185.553 111.209 185.524C111.654 185.359 112.096 185.19 112.537 185.017C112.59 184.996 112.644 184.976 112.698 184.955C112.82 184.906 112.94 184.853 113.062 184.803C113.428 184.655 113.793 184.503 114.156 184.347C114.249 184.307 114.344 184.271 114.436 184.231C114.531 184.189 114.623 184.145 114.717 184.103C115.102 183.933 115.485 183.76 115.865 183.583C115.977 183.531 116.092 183.482 116.203 183.429C116.249 183.407 116.294 183.384 116.34 183.362C116.888 183.101 117.432 182.834 117.97 182.559C117.986 182.551 118.004 182.543 118.02 182.534C118.079 182.504 118.136 182.472 118.194 182.441C118.7 182.18 119.199 181.912 119.693 181.638C119.772 181.594 119.854 181.554 119.933 181.51C119.997 181.474 120.058 181.435 120.122 181.399C120.745 181.047 121.359 180.687 121.964 180.319C121.989 180.303 122.016 180.289 122.042 180.273C122.199 180.177 122.35 180.077 122.506 179.979C122.74 179.832 122.975 179.686 123.206 179.536C123.398 179.412 123.586 179.285 123.775 179.159C123.998 179.01 124.222 178.861 124.442 178.71C124.49 178.677 124.541 178.645 124.588 178.612C124.765 178.49 124.936 178.365 125.11 178.241C125.262 178.133 125.417 178.025 125.568 177.916C125.807 177.742 126.04 177.566 126.274 177.39C126.405 177.291 126.538 177.194 126.668 177.095C126.954 176.875 127.234 176.652 127.512 176.428C127.584 176.37 127.659 176.313 127.731 176.255C128.068 175.98 128.399 175.703 128.724 175.423C128.734 175.415 128.743 175.407 128.752 175.398C128.808 175.35 128.862 175.301 128.917 175.252C129.179 175.024 129.436 174.795 129.689 174.563C129.793 174.468 129.893 174.373 129.996 174.277C130.198 174.088 130.397 173.899 130.593 173.708C130.7 173.604 130.806 173.499 130.912 173.394C131.102 173.204 131.289 173.013 131.473 172.821C131.569 172.721 131.667 172.621 131.761 172.52C131.803 172.476 131.846 172.433 131.887 172.389C132.018 172.249 132.141 172.107 132.267 171.966C132.377 171.844 132.489 171.723 132.596 171.601C132.771 171.4 132.938 171.198 133.106 170.996C133.194 170.891 133.285 170.786 133.37 170.68C133.596 170.401 133.813 170.121 134.023 169.84C134.046 169.81 134.071 169.78 134.093 169.75C134.315 169.451 134.529 169.152 134.734 168.851C134.742 168.839 134.748 168.828 134.756 168.816C134.869 168.65 134.972 168.483 135.079 168.316C135.183 168.155 135.291 167.995 135.389 167.833C135.491 167.666 135.583 167.499 135.68 167.331C135.767 167.18 135.859 167.03 135.942 166.878C135.947 166.868 135.952 166.858 135.957 166.848C136.141 166.508 136.314 166.167 136.475 165.825C136.562 165.639 136.646 165.453 136.725 165.269C136.828 165.028 136.924 164.789 137.013 164.552C137.019 164.537 137.023 164.523 137.028 164.509C137.106 164.3 137.18 164.093 137.247 163.887C137.279 163.788 137.298 163.693 137.328 163.594C137.391 163.385 137.447 163.179 137.499 162.973C137.525 162.868 137.563 162.76 137.587 162.655C137.609 162.555 137.619 162.459 137.639 162.359C137.675 162.18 137.706 162.003 137.733 161.828C137.748 161.731 137.773 161.631 137.785 161.535Z" fill="white"/>
<mask id="mask11_38_2621" style="mask-type:alpha" maskUnits="userSpaceOnUse" x="73" y="143" width="65" height="46">
<path fill-rule="evenodd" clip-rule="evenodd" d="M137.785 161.535C137.8 161.423 137.801 161.316 137.812 161.205C137.827 161.044 137.841 160.883 137.849 160.724C137.854 160.645 137.866 160.563 137.868 160.485C137.872 160.356 137.861 160.232 137.86 160.106C137.858 159.957 137.858 159.808 137.85 159.662C137.846 159.603 137.85 159.542 137.845 159.484C137.834 159.336 137.807 159.194 137.789 159.049C137.772 158.913 137.759 158.776 137.736 158.643C137.73 158.604 137.728 158.564 137.721 158.525C137.69 158.358 137.641 158.198 137.6 158.034C137.57 157.911 137.546 157.785 137.51 157.665C137.503 157.642 137.5 157.618 137.493 157.595C137.406 157.311 137.303 157.032 137.186 156.759L131.403 143.308C131.528 143.604 131.637 143.906 131.727 144.214C131.763 144.334 131.787 144.46 131.817 144.583C131.867 144.784 131.917 144.985 131.953 145.193C131.976 145.326 131.989 145.462 132.006 145.597C132.031 145.8 132.055 146.003 132.066 146.211C132.075 146.357 132.075 146.506 132.077 146.655C132.079 146.859 132.077 147.064 132.066 147.273C132.058 147.432 132.044 147.593 132.028 147.754C132.008 147.96 131.982 148.168 131.95 148.378C131.923 148.553 131.892 148.73 131.856 148.908C131.816 149.111 131.768 149.316 131.716 149.523C131.664 149.728 131.607 149.935 131.545 150.143C131.454 150.446 131.361 150.749 131.245 151.058C131.24 151.073 131.236 151.087 131.23 151.101C131.073 151.52 130.894 151.944 130.692 152.375C130.532 152.716 130.358 153.057 130.174 153.397C130.087 153.559 129.99 153.719 129.897 153.881C129.8 154.048 129.708 154.216 129.606 154.383C129.508 154.544 129.4 154.705 129.296 154.866C129.189 155.032 129.086 155.199 128.973 155.365C128.761 155.678 128.54 155.99 128.31 156.3C128.29 156.326 128.269 156.352 128.249 156.378C128.036 156.663 127.815 156.947 127.587 157.23C127.503 157.334 127.413 157.438 127.326 157.542C127.158 157.745 126.988 157.949 126.812 158.151C126.706 158.272 126.595 158.393 126.486 158.514C126.319 158.699 126.152 158.885 125.978 159.07C125.884 159.171 125.786 159.271 125.689 159.372C125.506 159.563 125.319 159.753 125.129 159.943C125.024 160.048 124.917 160.153 124.81 160.258C124.614 160.448 124.415 160.638 124.213 160.827C124.11 160.922 124.01 161.018 123.906 161.113C123.653 161.344 123.396 161.574 123.134 161.801C123.079 161.85 123.025 161.899 122.969 161.948C122.635 162.236 122.294 162.522 121.947 162.805C121.879 162.86 121.808 162.914 121.74 162.969C121.459 163.196 121.175 163.421 120.885 163.644C120.755 163.743 120.622 163.841 120.491 163.939C120.257 164.116 120.024 164.292 119.785 164.465C119.634 164.575 119.479 164.682 119.327 164.791C119.106 164.948 118.885 165.105 118.659 165.259C118.439 165.411 118.213 165.561 117.989 165.71C117.801 165.835 117.615 165.961 117.424 166.085C117.193 166.234 116.958 166.381 116.723 166.529C116.542 166.642 116.363 166.757 116.18 166.869C115.577 167.238 114.964 167.598 114.339 167.948C114.197 168.029 114.054 168.108 113.91 168.188C113.417 168.46 112.918 168.728 112.414 168.989C112.338 169.029 112.262 169.07 112.186 169.109C111.649 169.384 111.106 169.652 110.557 169.911C110.399 169.986 110.24 170.058 110.082 170.132C109.702 170.309 109.319 170.482 108.934 170.652C108.748 170.735 108.561 170.816 108.373 170.897C108.011 171.052 107.646 171.204 107.28 171.352C107.105 171.424 106.93 171.497 106.753 171.566C106.314 171.74 105.873 171.909 105.43 172.072C105.339 172.105 105.249 172.141 105.158 172.174C104.629 172.367 104.097 172.552 103.562 172.729C103.413 172.779 103.262 172.825 103.112 172.874C102.722 173 102.332 173.123 101.941 173.241C101.748 173.299 101.554 173.354 101.361 173.41C101 173.515 100.638 173.616 100.275 173.713C100.076 173.767 99.8761 173.819 99.6763 173.871C99.281 173.972 98.8854 174.068 98.4894 174.159C98.3221 174.198 98.1549 174.239 97.9875 174.276C97.4012 174.407 96.8148 174.527 96.2285 174.638C96.1314 174.656 96.0345 174.671 95.9374 174.688C95.3917 174.787 94.8466 174.875 94.3022 174.954C93.9951 174.999 93.6877 175.046 93.3812 175.085C92.7518 175.164 92.1351 175.227 91.5286 175.278C91.4047 175.289 91.2847 175.294 91.1618 175.303C90.7126 175.337 90.2698 175.363 89.8335 175.382C89.6552 175.389 89.4789 175.394 89.303 175.399C88.9331 175.409 88.5696 175.412 88.2099 175.411C88.0064 175.411 87.8019 175.411 87.6017 175.407C87.2297 175.399 86.8662 175.383 86.5059 175.363C86.3465 175.355 86.1831 175.35 86.0261 175.339C85.5157 175.303 85.0155 175.257 84.5302 175.197C84.4769 175.19 84.4272 175.18 84.3742 175.174C83.9435 175.118 83.523 175.053 83.1125 174.978C82.9582 174.95 82.8104 174.916 82.6591 174.886C82.3571 174.824 82.0583 174.761 81.7684 174.689C81.6042 174.648 81.4441 174.605 81.2838 174.561C81.016 174.488 80.7536 174.41 80.4967 174.329C80.3409 174.279 80.1861 174.228 80.0346 174.176C79.7781 174.086 79.5297 173.99 79.2852 173.891C79.1519 173.837 79.0157 173.786 78.8858 173.729C78.6031 173.606 78.332 173.474 78.0667 173.338C77.9889 173.298 77.9059 173.262 77.8298 173.221C77.4942 173.041 77.1738 172.851 76.8686 172.651C76.7891 172.599 76.7173 172.542 76.6399 172.489C76.4193 172.337 76.2036 172.181 76.0001 172.018C75.9005 171.939 75.8074 171.855 75.712 171.773C75.5424 171.626 75.3773 171.478 75.2211 171.324C75.1277 171.232 75.0376 171.138 74.9491 171.044C74.803 170.888 74.6646 170.727 74.5317 170.564C74.4531 170.467 74.3736 170.371 74.2997 170.271C74.1657 170.091 74.0432 169.906 73.9249 169.718C73.8688 169.629 73.8078 169.542 73.7553 169.451C73.5916 169.171 73.4445 168.881 73.315 168.584L79.0982 182.034C79.2278 182.332 79.3748 182.622 79.5385 182.902C79.591 182.993 79.6519 183.079 79.7081 183.168C79.8264 183.356 79.9489 183.542 80.0827 183.722C80.1568 183.821 80.2362 183.918 80.3149 184.014C80.4477 184.178 80.5861 184.338 80.7323 184.494C80.8208 184.589 80.9108 184.683 81.0041 184.774C81.1605 184.928 81.3254 185.077 81.495 185.223C81.5906 185.305 81.6836 185.389 81.7834 185.469C81.9865 185.631 82.2016 185.786 82.4218 185.938C82.4997 185.992 82.572 186.049 82.6521 186.102C82.9572 186.302 83.2773 186.492 83.6125 186.672C83.6896 186.713 83.7737 186.75 83.8524 186.79C84.1167 186.925 84.3867 187.057 84.6686 187.179C84.7986 187.236 84.9349 187.288 85.0686 187.342C85.3132 187.441 85.5615 187.537 85.8182 187.626C85.9696 187.679 86.124 187.729 86.2795 187.779C86.536 187.861 86.7981 187.938 87.0658 188.011C87.2268 188.055 87.3874 188.099 87.5522 188.14C87.8417 188.211 88.1396 188.275 88.441 188.336C88.5928 188.367 88.7409 188.4 88.8957 188.429C89.3075 188.504 89.73 188.569 90.163 188.625C90.2138 188.631 90.2615 188.641 90.3126 188.647C90.7982 188.707 91.2985 188.753 91.8092 188.789C91.9658 188.8 92.1285 188.805 92.2875 188.814C92.6487 188.833 93.0129 188.85 93.3859 188.857C93.5851 188.862 93.7883 188.861 93.9908 188.862C94.1917 188.862 94.387 188.869 94.5911 188.866C94.7537 188.864 94.9227 188.854 95.0872 188.849C95.2626 188.845 95.4382 188.839 95.6161 188.832C96.052 188.814 96.4949 188.788 96.9448 188.754C97.0678 188.745 97.1877 188.739 97.3118 188.728C97.3479 188.726 97.3825 188.724 97.4187 188.721C97.9903 188.672 98.5722 188.61 99.1643 188.536C99.3792 188.508 99.5943 188.48 99.8095 188.449C99.9013 188.437 99.9935 188.418 100.085 188.405C100.63 188.325 101.175 188.236 101.72 188.138C101.794 188.125 101.866 188.116 101.94 188.103C101.964 188.098 101.988 188.092 102.012 188.088C102.597 187.979 103.183 187.858 103.769 187.728C103.813 187.718 103.857 187.71 103.901 187.7C104.026 187.672 104.151 187.638 104.276 187.609C104.67 187.517 105.065 187.422 105.459 187.321C105.551 187.298 105.643 187.278 105.734 187.254C105.843 187.226 105.95 187.193 106.059 187.163C106.421 187.066 106.782 186.966 107.142 186.861C107.266 186.825 107.39 186.794 107.514 186.757C107.585 186.737 107.654 186.712 107.725 186.691C108.116 186.574 108.505 186.45 108.894 186.324C109.015 186.285 109.137 186.25 109.258 186.21C109.287 186.2 109.316 186.19 109.345 186.18C109.88 186.002 110.412 185.817 110.942 185.625C110.953 185.621 110.965 185.617 110.976 185.613C111.054 185.584 111.131 185.553 111.209 185.524C111.654 185.359 112.096 185.19 112.537 185.017C112.59 184.996 112.644 184.976 112.698 184.955C112.82 184.906 112.94 184.853 113.062 184.803C113.428 184.655 113.793 184.503 114.156 184.347C114.249 184.307 114.344 184.271 114.436 184.231C114.531 184.189 114.623 184.145 114.717 184.103C115.102 183.933 115.485 183.76 115.865 183.583C115.977 183.531 116.092 183.482 116.203 183.429C116.249 183.407 116.294 183.384 116.34 183.362C116.888 183.101 117.432 182.834 117.97 182.559C117.986 182.551 118.004 182.543 118.02 182.534C118.079 182.504 118.136 182.472 118.194 182.441C118.7 182.18 119.199 181.912 119.693 181.638C119.772 181.594 119.854 181.554 119.933 181.51C119.997 181.474 120.058 181.435 120.122 181.399C120.745 181.047 121.359 180.687 121.964 180.319C121.989 180.303 122.016 180.289 122.042 180.273C122.199 180.177 122.35 180.077 122.506 179.979C122.74 179.832 122.975 179.686 123.206 179.536C123.398 179.412 123.586 179.285 123.775 179.159C123.998 179.01 124.222 178.861 124.442 178.71C124.49 178.677 124.541 178.645 124.588 178.612C124.765 178.49 124.936 178.365 125.11 178.241C125.262 178.133 125.417 178.025 125.568 177.916C125.807 177.742 126.04 177.566 126.274 177.39C126.405 177.291 126.538 177.194 126.668 177.095C126.954 176.875 127.234 176.652 127.512 176.428C127.584 176.37 127.659 176.313 127.731 176.255C128.068 175.98 128.399 175.703 128.724 175.423C128.734 175.415 128.743 175.407 128.752 175.398C128.808 175.35 128.862 175.301 128.917 175.252C129.179 175.024 129.436 174.795 129.689 174.563C129.793 174.468 129.893 174.373 129.996 174.277C130.198 174.088 130.397 173.899 130.593 173.708C130.7 173.604 130.806 173.499 130.912 173.394C131.102 173.204 131.289 173.013 131.473 172.821C131.569 172.721 131.667 172.621 131.761 172.52C131.803 172.476 131.846 172.433 131.887 172.389C132.018 172.249 132.141 172.107 132.267 171.966C132.377 171.844 132.489 171.723 132.596 171.601C132.771 171.4 132.938 171.198 133.106 170.996C133.194 170.891 133.285 170.786 133.37 170.68C133.596 170.401 133.813 170.121 134.023 169.84C134.046 169.81 134.071 169.78 134.093 169.75C134.315 169.451 134.529 169.152 134.734 168.851C134.742 168.839 134.748 168.828 134.756 168.816C134.869 168.65 134.972 168.483 135.079 168.316C135.183 168.155 135.291 167.995 135.389 167.833C135.491 167.666 135.583 167.499 135.68 167.331C135.767 167.18 135.859 167.03 135.942 166.878C135.947 166.868 135.952 166.858 135.957 166.848C136.141 166.508 136.314 166.167 136.475 165.825C136.562 165.639 136.646 165.453 136.725 165.269C136.828 165.028 136.924 164.789 137.013 164.552C137.019 164.537 137.023 164.523 137.028 164.509C137.106 164.3 137.18 164.093 137.247 163.887C137.279 163.788 137.298 163.693 137.328 163.594C137.391 163.385 137.447 163.179 137.499 162.973C137.525 162.868 137.563 162.76 137.587 162.655C137.609 162.555 137.619 162.459 137.639 162.359C137.675 162.18 137.706 162.003 137.733 161.828C137.748 161.731 137.773 161.631 137.785 161.535Z" fill="white"/>
</mask>
<g mask="url(#mask11_38_2621)">
<ellipse cx="76.5725" cy="146.181" rx="0.534368" ry="0.537889" fill="white" stroke="#3D3D3C" stroke-width="0.8" stroke-linecap="round" stroke-linejoin="round"/>
<ellipse cx="81.0371" cy="146.181" rx="0.534368" ry="0.537889" fill="white" stroke="#3D3D3C" stroke-width="0.8" stroke-linecap="round" stroke-linejoin="round"/>
<ellipse cx="85.5016" cy="146.181" rx="0.534368" ry="0.537889" fill="white" stroke="#3D3D3C" stroke-width="0.8" stroke-linecap="round" stroke-linejoin="round"/>
<ellipse cx="89.9661" cy="146.181" rx="0.534368" ry="0.537889" fill="white" stroke="#3D3D3C" stroke-width="0.8" stroke-linecap="round" stroke-linejoin="round"/>
<ellipse cx="94.4308" cy="146.181" rx="0.534368" ry="0.537889" fill="white" stroke="#3D3D3C" stroke-width="0.8" stroke-linecap="round" stroke-linejoin="round"/>
<ellipse cx="98.8954" cy="146.181" rx="0.534368" ry="0.537889" fill="white" stroke="#3D3D3C" stroke-width="0.8" stroke-linecap="round" stroke-linejoin="round"/>
<ellipse cx="107.824" cy="146.181" rx="0.534368" ry="0.537889" fill="white" stroke="#3D3D3C" stroke-width="0.8" stroke-linecap="round" stroke-linejoin="round"/>
<ellipse cx="103.36" cy="146.181" rx="0.534368" ry="0.537889" fill="white" stroke="#3D3D3C" stroke-width="0.8" stroke-linecap="round" stroke-linejoin="round"/>
<ellipse cx="112.289" cy="146.181" rx="0.534368" ry="0.537889" fill="white" stroke="#3D3D3C" stroke-width="0.8" stroke-linecap="round" stroke-linejoin="round"/>
<ellipse cx="116.754" cy="146.181" rx="0.534368" ry="0.537889" fill="white" stroke="#3D3D3C" stroke-width="0.8" stroke-linecap="round" stroke-linejoin="round"/>
<ellipse cx="121.218" cy="146.181" rx="0.534368" ry="0.537889" fill="white" stroke="#3D3D3C" stroke-width="0.8" stroke-linecap="round" stroke-linejoin="round"/>
<ellipse cx="125.683" cy="146.181" rx="0.534368" ry="0.537889" fill="white" stroke="#3D3D3C" stroke-width="0.8" stroke-linecap="round" stroke-linejoin="round"/>
<ellipse cx="130.147" cy="146.181" rx="0.534368" ry="0.537889" fill="white" stroke="#3D3D3C" stroke-width="0.8" stroke-linecap="round" stroke-linejoin="round"/>
<ellipse cx="134.612" cy="146.181" rx="0.534368" ry="0.537889" fill="white" stroke="#3D3D3C" stroke-width="0.8" stroke-linecap="round" stroke-linejoin="round"/>
<ellipse cx="76.5725" cy="150.605" rx="0.534368" ry="0.537889" fill="white" stroke="#3D3D3C" stroke-width="0.8" stroke-linecap="round" stroke-linejoin="round"/>
<ellipse cx="81.0371" cy="150.605" rx="0.534368" ry="0.537889" fill="white" stroke="#3D3D3C" stroke-width="0.8" stroke-linecap="round" stroke-linejoin="round"/>
<ellipse cx="85.5016" cy="150.605" rx="0.534368" ry="0.537889" fill="white" stroke="#3D3D3C" stroke-width="0.8" stroke-linecap="round" stroke-linejoin="round"/>
<ellipse cx="89.9661" cy="150.605" rx="0.534368" ry="0.537889" fill="white" stroke="#3D3D3C" stroke-width="0.8" stroke-linecap="round" stroke-linejoin="round"/>
<ellipse cx="94.4308" cy="150.605" rx="0.534368" ry="0.537889" fill="white" stroke="#3D3D3C" stroke-width="0.8" stroke-linecap="round" stroke-linejoin="round"/>
<ellipse cx="98.8954" cy="150.605" rx="0.534368" ry="0.537889" fill="white" stroke="#3D3D3C" stroke-width="0.8" stroke-linecap="round" stroke-linejoin="round"/>
<ellipse cx="107.824" cy="150.605" rx="0.534368" ry="0.537889" fill="white" stroke="#3D3D3C" stroke-width="0.8" stroke-linecap="round" stroke-linejoin="round"/>
<ellipse cx="103.36" cy="150.605" rx="0.534368" ry="0.537889" fill="white" stroke="#3D3D3C" stroke-width="0.8" stroke-linecap="round" stroke-linejoin="round"/>
<ellipse cx="112.289" cy="150.605" rx="0.534368" ry="0.537889" fill="white" stroke="#3D3D3C" stroke-width="0.8" stroke-linecap="round" stroke-linejoin="round"/>
<ellipse cx="116.754" cy="150.605" rx="0.534368" ry="0.537889" fill="white" stroke="#3D3D3C" stroke-width="0.8" stroke-linecap="round" stroke-linejoin="round"/>
<ellipse cx="121.218" cy="150.605" rx="0.534368" ry="0.537889" fill="white" stroke="#3D3D3C" stroke-width="0.8" stroke-linecap="round" stroke-linejoin="round"/>
<ellipse cx="125.683" cy="150.605" rx="0.534368" ry="0.537889" fill="white" stroke="#3D3D3C" stroke-width="0.8" stroke-linecap="round" stroke-linejoin="round"/>
<ellipse cx="130.147" cy="150.605" rx="0.534368" ry="0.537889" fill="white" stroke="#3D3D3C" stroke-width="0.8" stroke-linecap="round" stroke-linejoin="round"/>
<ellipse cx="134.612" cy="150.605" rx="0.534368" ry="0.537889" fill="white" stroke="#3D3D3C" stroke-width="0.8" stroke-linecap="round" stroke-linejoin="round"/>
<ellipse cx="76.5725" cy="155.029" rx="0.534368" ry="0.537889" fill="white" stroke="#3D3D3C" stroke-width="0.8" stroke-linecap="round" stroke-linejoin="round"/>
<ellipse cx="81.0371" cy="155.029" rx="0.534368" ry="0.537889" fill="white" stroke="#3D3D3C" stroke-width="0.8" stroke-linecap="round" stroke-linejoin="round"/>
<ellipse cx="85.5016" cy="155.029" rx="0.534368" ry="0.537889" fill="white" stroke="#3D3D3C" stroke-width="0.8" stroke-linecap="round" stroke-linejoin="round"/>
<ellipse cx="89.9661" cy="155.029" rx="0.534368" ry="0.537889" fill="white" stroke="#3D3D3C" stroke-width="0.8" stroke-linecap="round" stroke-linejoin="round"/>
<ellipse cx="94.4308" cy="155.029" rx="0.534368" ry="0.537889" fill="white" stroke="#3D3D3C" stroke-width="0.8" stroke-linecap="round" stroke-linejoin="round"/>
<ellipse cx="98.8954" cy="155.029" rx="0.534368" ry="0.537889" fill="white" stroke="#3D3D3C" stroke-width="0.8" stroke-linecap="round" stroke-linejoin="round"/>
<ellipse cx="107.824" cy="155.029" rx="0.534368" ry="0.537889" fill="white" stroke="#3D3D3C" stroke-width="0.8" stroke-linecap="round" stroke-linejoin="round"/>
<ellipse cx="103.36" cy="155.029" rx="0.534368" ry="0.537889" fill="white" stroke="#3D3D3C" stroke-width="0.8" stroke-linecap="round" stroke-linejoin="round"/>
<ellipse cx="112.289" cy="155.029" rx="0.534368" ry="0.537889" fill="white" stroke="#3D3D3C" stroke-width="0.8" stroke-linecap="round" stroke-linejoin="round"/>
<ellipse cx="116.754" cy="155.029" rx="0.534368" ry="0.537889" fill="white" stroke="#3D3D3C" stroke-width="0.8" stroke-linecap="round" stroke-linejoin="round"/>
<ellipse cx="121.218" cy="155.029" rx="0.534368" ry="0.537889" fill="white" stroke="#3D3D3C" stroke-width="0.8" stroke-linecap="round" stroke-linejoin="round"/>
<ellipse cx="125.683" cy="155.029" rx="0.534368" ry="0.537889" fill="white" stroke="#3D3D3C" stroke-width="0.8" stroke-linecap="round" stroke-linejoin="round"/>
<ellipse cx="130.147" cy="155.029" rx="0.534368" ry="0.537889" fill="white" stroke="#3D3D3C" stroke-width="0.8" stroke-linecap="round" stroke-linejoin="round"/>
<ellipse cx="134.612" cy="155.029" rx="0.534368" ry="0.537889" fill="white" stroke="#3D3D3C" stroke-width="0.8" stroke-linecap="round" stroke-linejoin="round"/>
<ellipse cx="76.5725" cy="159.452" rx="0.534368" ry="0.537889" fill="white" stroke="#3D3D3C" stroke-width="0.8" stroke-linecap="round" stroke-linejoin="round"/>
<ellipse cx="81.0371" cy="159.452" rx="0.534368" ry="0.537889" fill="white" stroke="#3D3D3C" stroke-width="0.8" stroke-linecap="round" stroke-linejoin="round"/>
<ellipse cx="85.5016" cy="159.452" rx="0.534368" ry="0.537889" fill="white" stroke="#3D3D3C" stroke-width="0.8" stroke-linecap="round" stroke-linejoin="round"/>
<ellipse cx="89.9661" cy="159.452" rx="0.534368" ry="0.537889" fill="white" stroke="#3D3D3C" stroke-width="0.8" stroke-linecap="round" stroke-linejoin="round"/>
<ellipse cx="94.4308" cy="159.452" rx="0.534368" ry="0.537889" fill="white" stroke="#3D3D3C" stroke-width="0.8" stroke-linecap="round" stroke-linejoin="round"/>
<ellipse cx="98.8954" cy="159.452" rx="0.534368" ry="0.537889" fill="white" stroke="#3D3D3C" stroke-width="0.8" stroke-linecap="round" stroke-linejoin="round"/>
<ellipse cx="107.824" cy="159.452" rx="0.534368" ry="0.537889" fill="white" stroke="#3D3D3C" stroke-width="0.8" stroke-linecap="round" stroke-linejoin="round"/>
<ellipse cx="103.36" cy="159.452" rx="0.534368" ry="0.537889" fill="white" stroke="#3D3D3C" stroke-width="0.8" stroke-linecap="round" stroke-linejoin="round"/>
<ellipse cx="112.289" cy="159.452" rx="0.534368" ry="0.537889" fill="white" stroke="#3D3D3C" stroke-width="0.8" stroke-linecap="round" stroke-linejoin="round"/>
<ellipse cx="116.754" cy="159.452" rx="0.534368" ry="0.537889" fill="white" stroke="#3D3D3C" stroke-width="0.8" stroke-linecap="round" stroke-linejoin="round"/>
<ellipse cx="121.218" cy="159.452" rx="0.534368" ry="0.537889" fill="white" stroke="#3D3D3C" stroke-width="0.8" stroke-linecap="round" stroke-linejoin="round"/>
<ellipse cx="125.683" cy="159.452" rx="0.534368" ry="0.537889" fill="white" stroke="#3D3D3C" stroke-width="0.8" stroke-linecap="round" stroke-linejoin="round"/>
<ellipse cx="130.147" cy="159.452" rx="0.534368" ry="0.537889" fill="white" stroke="#3D3D3C" stroke-width="0.8" stroke-linecap="round" stroke-linejoin="round"/>
<ellipse cx="134.612" cy="159.452" rx="0.534368" ry="0.537889" fill="white" stroke="#3D3D3C" stroke-width="0.8" stroke-linecap="round" stroke-linejoin="round"/>
<ellipse cx="76.5725" cy="163.876" rx="0.534368" ry="0.537889" fill="white" stroke="#3D3D3C" stroke-width="0.8" stroke-linecap="round" stroke-linejoin="round"/>
<ellipse cx="81.0371" cy="163.876" rx="0.534368" ry="0.537889" fill="white" stroke="#3D3D3C" stroke-width="0.8" stroke-linecap="round" stroke-linejoin="round"/>
<ellipse cx="85.5016" cy="163.876" rx="0.534368" ry="0.537889" fill="white" stroke="#3D3D3C" stroke-width="0.8" stroke-linecap="round" stroke-linejoin="round"/>
<ellipse cx="89.9661" cy="163.876" rx="0.534368" ry="0.537889" fill="white" stroke="#3D3D3C" stroke-width="0.8" stroke-linecap="round" stroke-linejoin="round"/>
<ellipse cx="94.4308" cy="163.876" rx="0.534368" ry="0.537889" fill="white" stroke="#3D3D3C" stroke-width="0.8" stroke-linecap="round" stroke-linejoin="round"/>
<ellipse cx="98.8954" cy="163.876" rx="0.534368" ry="0.537889" fill="white" stroke="#3D3D3C" stroke-width="0.8" stroke-linecap="round" stroke-linejoin="round"/>
<ellipse cx="107.824" cy="163.876" rx="0.534368" ry="0.537889" fill="white" stroke="#3D3D3C" stroke-width="0.8" stroke-linecap="round" stroke-linejoin="round"/>
<ellipse cx="103.36" cy="163.876" rx="0.534368" ry="0.537889" fill="white" stroke="#3D3D3C" stroke-width="0.8" stroke-linecap="round" stroke-linejoin="round"/>
<ellipse cx="112.289" cy="163.876" rx="0.534368" ry="0.537889" fill="white" stroke="#3D3D3C" stroke-width="0.8" stroke-linecap="round" stroke-linejoin="round"/>
<ellipse cx="116.754" cy="163.876" rx="0.534368" ry="0.537889" fill="white" stroke="#3D3D3C" stroke-width="0.8" stroke-linecap="round" stroke-linejoin="round"/>
<ellipse cx="121.218" cy="163.876" rx="0.534368" ry="0.537889" fill="white" stroke="#3D3D3C" stroke-width="0.8" stroke-linecap="round" stroke-linejoin="round"/>
<ellipse cx="125.683" cy="163.876" rx="0.534368" ry="0.537889" fill="white" stroke="#3D3D3C" stroke-width="0.8" stroke-linecap="round" stroke-linejoin="round"/>
<ellipse cx="130.147" cy="163.876" rx="0.534368" ry="0.537889" fill="white" stroke="#3D3D3C" stroke-width="0.8" stroke-linecap="round" stroke-linejoin="round"/>
<ellipse cx="134.612" cy="163.876" rx="0.534368" ry="0.537889" fill="white" stroke="#3D3D3C" stroke-width="0.8" stroke-linecap="round" stroke-linejoin="round"/>
<ellipse cx="76.5725" cy="168.3" rx="0.534368" ry="0.537889" fill="white" stroke="#3D3D3C" stroke-width="0.8" stroke-linecap="round" stroke-linejoin="round"/>
<ellipse cx="81.0371" cy="168.3" rx="0.534368" ry="0.537889" fill="white" stroke="#3D3D3C" stroke-width="0.8" stroke-linecap="round" stroke-linejoin="round"/>
<ellipse cx="85.5016" cy="168.3" rx="0.534368" ry="0.537889" fill="white" stroke="#3D3D3C" stroke-width="0.8" stroke-linecap="round" stroke-linejoin="round"/>
<ellipse cx="89.9661" cy="168.3" rx="0.534368" ry="0.537889" fill="white" stroke="#3D3D3C" stroke-width="0.8" stroke-linecap="round" stroke-linejoin="round"/>
<ellipse cx="94.4308" cy="168.3" rx="0.534368" ry="0.537889" fill="white" stroke="#3D3D3C" stroke-width="0.8" stroke-linecap="round" stroke-linejoin="round"/>
<ellipse cx="98.8954" cy="168.3" rx="0.534368" ry="0.537889" fill="white" stroke="#3D3D3C" stroke-width="0.8" stroke-linecap="round" stroke-linejoin="round"/>
<ellipse cx="107.824" cy="168.3" rx="0.534368" ry="0.537889" fill="white" stroke="#3D3D3C" stroke-width="0.8" stroke-linecap="round" stroke-linejoin="round"/>
<ellipse cx="103.36" cy="168.3" rx="0.534368" ry="0.537889" fill="white" stroke="#3D3D3C" stroke-width="0.8" stroke-linecap="round" stroke-linejoin="round"/>
<ellipse cx="112.289" cy="168.3" rx="0.534368" ry="0.537889" fill="white" stroke="#3D3D3C" stroke-width="0.8" stroke-linecap="round" stroke-linejoin="round"/>
<ellipse cx="116.754" cy="168.3" rx="0.534368" ry="0.537889" fill="white" stroke="#3D3D3C" stroke-width="0.8" stroke-linecap="round" stroke-linejoin="round"/>
<ellipse cx="121.218" cy="168.3" rx="0.534368" ry="0.537889" fill="white" stroke="#3D3D3C" stroke-width="0.8" stroke-linecap="round" stroke-linejoin="round"/>
<ellipse cx="125.683" cy="168.3" rx="0.534368" ry="0.537889" fill="white" stroke="#3D3D3C" stroke-width="0.8" stroke-linecap="round" stroke-linejoin="round"/>
<ellipse cx="130.147" cy="168.3" rx="0.534368" ry="0.537889" fill="white" stroke="#3D3D3C" stroke-width="0.8" stroke-linecap="round" stroke-linejoin="round"/>
<ellipse cx="134.612" cy="168.3" rx="0.534368" ry="0.537889" fill="white" stroke="#3D3D3C" stroke-width="0.8" stroke-linecap="round" stroke-linejoin="round"/>
<ellipse cx="76.5725" cy="172.723" rx="0.534368" ry="0.537889" fill="white" stroke="#3D3D3C" stroke-width="0.8" stroke-linecap="round" stroke-linejoin="round"/>
<ellipse cx="81.0371" cy="172.723" rx="0.534368" ry="0.537889" fill="white" stroke="#3D3D3C" stroke-width="0.8" stroke-linecap="round" stroke-linejoin="round"/>
<ellipse cx="85.5016" cy="172.723" rx="0.534368" ry="0.537889" fill="white" stroke="#3D3D3C" stroke-width="0.8" stroke-linecap="round" stroke-linejoin="round"/>
<ellipse cx="89.9661" cy="172.723" rx="0.534368" ry="0.537889" fill="white" stroke="#3D3D3C" stroke-width="0.8" stroke-linecap="round" stroke-linejoin="round"/>
<ellipse cx="94.4308" cy="172.723" rx="0.534368" ry="0.537889" fill="white" stroke="#3D3D3C" stroke-width="0.8" stroke-linecap="round" stroke-linejoin="round"/>
<ellipse cx="98.8954" cy="172.723" rx="0.534368" ry="0.537889" fill="white" stroke="#3D3D3C" stroke-width="0.8" stroke-linecap="round" stroke-linejoin="round"/>
<ellipse cx="107.824" cy="172.723" rx="0.534368" ry="0.537889" fill="white" stroke="#3D3D3C" stroke-width="0.8" stroke-linecap="round" stroke-linejoin="round"/>
<ellipse cx="103.36" cy="172.723" rx="0.534368" ry="0.537889" fill="white" stroke="#3D3D3C" stroke-width="0.8" stroke-linecap="round" stroke-linejoin="round"/>
<ellipse cx="112.289" cy="172.723" rx="0.534368" ry="0.537889" fill="white" stroke="#3D3D3C" stroke-width="0.8" stroke-linecap="round" stroke-linejoin="round"/>
<ellipse cx="116.754" cy="172.723" rx="0.534368" ry="0.537889" fill="white" stroke="#3D3D3C" stroke-width="0.8" stroke-linecap="round" stroke-linejoin="round"/>
<ellipse cx="121.218" cy="172.723" rx="0.534368" ry="0.537889" fill="white" stroke="#3D3D3C" stroke-width="0.8" stroke-linecap="round" stroke-linejoin="round"/>
<ellipse cx="125.683" cy="172.723" rx="0.534368" ry="0.537889" fill="white" stroke="#3D3D3C" stroke-width="0.8" stroke-linecap="round" stroke-linejoin="round"/>
<ellipse cx="130.147" cy="172.723" rx="0.534368" ry="0.537889" fill="white" stroke="#3D3D3C" stroke-width="0.8" stroke-linecap="round" stroke-linejoin="round"/>
<ellipse cx="134.612" cy="172.723" rx="0.534368" ry="0.537889" fill="white" stroke="#3D3D3C" stroke-width="0.8" stroke-linecap="round" stroke-linejoin="round"/>
<ellipse cx="76.5725" cy="177.147" rx="0.534368" ry="0.537889" fill="white" stroke="#3D3D3C" stroke-width="0.8" stroke-linecap="round" stroke-linejoin="round"/>
<ellipse cx="81.0371" cy="177.147" rx="0.534368" ry="0.537889" fill="white" stroke="#3D3D3C" stroke-width="0.8" stroke-linecap="round" stroke-linejoin="round"/>
<ellipse cx="85.5016" cy="177.147" rx="0.534368" ry="0.537889" fill="white" stroke="#3D3D3C" stroke-width="0.8" stroke-linecap="round" stroke-linejoin="round"/>
<ellipse cx="89.9661" cy="177.147" rx="0.534368" ry="0.537889" fill="white" stroke="#3D3D3C" stroke-width="0.8" stroke-linecap="round" stroke-linejoin="round"/>
<ellipse cx="94.4308" cy="177.147" rx="0.534368" ry="0.537889" fill="white" stroke="#3D3D3C" stroke-width="0.8" stroke-linecap="round" stroke-linejoin="round"/>
<ellipse cx="98.8954" cy="177.147" rx="0.534368" ry="0.537889" fill="white" stroke="#3D3D3C" stroke-width="0.8" stroke-linecap="round" stroke-linejoin="round"/>
<ellipse cx="107.824" cy="177.147" rx="0.534368" ry="0.537889" fill="white" stroke="#3D3D3C" stroke-width="0.8" stroke-linecap="round" stroke-linejoin="round"/>
<ellipse cx="103.36" cy="177.147" rx="0.534368" ry="0.537889" fill="white" stroke="#3D3D3C" stroke-width="0.8" stroke-linecap="round" stroke-linejoin="round"/>
<ellipse cx="112.289" cy="177.147" rx="0.534368" ry="0.537889" fill="white" stroke="#3D3D3C" stroke-width="0.8" stroke-linecap="round" stroke-linejoin="round"/>
<ellipse cx="116.754" cy="177.147" rx="0.534368" ry="0.537889" fill="white" stroke="#3D3D3C" stroke-width="0.8" stroke-linecap="round" stroke-linejoin="round"/>
<ellipse cx="121.218" cy="177.147" rx="0.534368" ry="0.537889" fill="white" stroke="#3D3D3C" stroke-width="0.8" stroke-linecap="round" stroke-linejoin="round"/>
<ellipse cx="125.683" cy="177.147" rx="0.534368" ry="0.537889" fill="white" stroke="#3D3D3C" stroke-width="0.8" stroke-linecap="round" stroke-linejoin="round"/>
<ellipse cx="130.147" cy="177.147" rx="0.534368" ry="0.537889" fill="white" stroke="#3D3D3C" stroke-width="0.8" stroke-linecap="round" stroke-linejoin="round"/>
<ellipse cx="134.612" cy="177.147" rx="0.534368" ry="0.537889" fill="white" stroke="#3D3D3C" stroke-width="0.8" stroke-linecap="round" stroke-linejoin="round"/>
<ellipse cx="76.5725" cy="181.571" rx="0.534368" ry="0.537889" fill="white" stroke="#3D3D3C" stroke-width="0.8" stroke-linecap="round" stroke-linejoin="round"/>
<ellipse cx="81.0371" cy="181.571" rx="0.534368" ry="0.537889" fill="white" stroke="#3D3D3C" stroke-width="0.8" stroke-linecap="round" stroke-linejoin="round"/>
<ellipse cx="85.5016" cy="181.571" rx="0.534368" ry="0.537889" fill="white" stroke="#3D3D3C" stroke-width="0.8" stroke-linecap="round" stroke-linejoin="round"/>
<ellipse cx="89.9661" cy="181.571" rx="0.534368" ry="0.537889" fill="white" stroke="#3D3D3C" stroke-width="0.8" stroke-linecap="round" stroke-linejoin="round"/>
<ellipse cx="94.4308" cy="181.571" rx="0.534368" ry="0.537889" fill="white" stroke="#3D3D3C" stroke-width="0.8" stroke-linecap="round" stroke-linejoin="round"/>
<ellipse cx="98.8954" cy="181.571" rx="0.534368" ry="0.537889" fill="white" stroke="#3D3D3C" stroke-width="0.8" stroke-linecap="round" stroke-linejoin="round"/>
<ellipse cx="107.824" cy="181.571" rx="0.534368" ry="0.537889" fill="white" stroke="#3D3D3C" stroke-width="0.8" stroke-linecap="round" stroke-linejoin="round"/>
<ellipse cx="103.36" cy="181.571" rx="0.534368" ry="0.537889" fill="white" stroke="#3D3D3C" stroke-width="0.8" stroke-linecap="round" stroke-linejoin="round"/>
<ellipse cx="112.289" cy="181.571" rx="0.534368" ry="0.537889" fill="white" stroke="#3D3D3C" stroke-width="0.8" stroke-linecap="round" stroke-linejoin="round"/>
<ellipse cx="116.754" cy="181.571" rx="0.534368" ry="0.537889" fill="white" stroke="#3D3D3C" stroke-width="0.8" stroke-linecap="round" stroke-linejoin="round"/>
<ellipse cx="121.218" cy="181.571" rx="0.534368" ry="0.537889" fill="white" stroke="#3D3D3C" stroke-width="0.8" stroke-linecap="round" stroke-linejoin="round"/>
<ellipse cx="125.683" cy="181.571" rx="0.534368" ry="0.537889" fill="white" stroke="#3D3D3C" stroke-width="0.8" stroke-linecap="round" stroke-linejoin="round"/>
<ellipse cx="130.147" cy="181.571" rx="0.534368" ry="0.537889" fill="white" stroke="#3D3D3C" stroke-width="0.8" stroke-linecap="round" stroke-linejoin="round"/>
<ellipse cx="134.612" cy="181.571" rx="0.534368" ry="0.537889" fill="white" stroke="#3D3D3C" stroke-width="0.8" stroke-linecap="round" stroke-linejoin="round"/>
<ellipse cx="76.5725" cy="185.994" rx="0.534368" ry="0.537889" fill="white" stroke="#3D3D3C" stroke-width="0.8" stroke-linecap="round" stroke-linejoin="round"/>
<ellipse cx="81.0371" cy="185.994" rx="0.534368" ry="0.537889" fill="white" stroke="#3D3D3C" stroke-width="0.8" stroke-linecap="round" stroke-linejoin="round"/>
<ellipse cx="85.5016" cy="185.994" rx="0.534368" ry="0.537889" fill="white" stroke="#3D3D3C" stroke-width="0.8" stroke-linecap="round" stroke-linejoin="round"/>
<ellipse cx="89.9661" cy="185.994" rx="0.534368" ry="0.537889" fill="white" stroke="#3D3D3C" stroke-width="0.8" stroke-linecap="round" stroke-linejoin="round"/>
<ellipse cx="94.4308" cy="185.994" rx="0.534368" ry="0.537889" fill="white" stroke="#3D3D3C" stroke-width="0.8" stroke-linecap="round" stroke-linejoin="round"/>
<ellipse cx="98.8954" cy="185.994" rx="0.534368" ry="0.537889" fill="white" stroke="#3D3D3C" stroke-width="0.8" stroke-linecap="round" stroke-linejoin="round"/>
<ellipse cx="107.824" cy="185.994" rx="0.534368" ry="0.537889" fill="white" stroke="#3D3D3C" stroke-width="0.8" stroke-linecap="round" stroke-linejoin="round"/>
<ellipse cx="103.36" cy="185.994" rx="0.534368" ry="0.537889" fill="white" stroke="#3D3D3C" stroke-width="0.8" stroke-linecap="round" stroke-linejoin="round"/>
<ellipse cx="112.289" cy="185.994" rx="0.534368" ry="0.537889" fill="white" stroke="#3D3D3C" stroke-width="0.8" stroke-linecap="round" stroke-linejoin="round"/>
<ellipse cx="116.754" cy="185.994" rx="0.534368" ry="0.537889" fill="white" stroke="#3D3D3C" stroke-width="0.8" stroke-linecap="round" stroke-linejoin="round"/>
<ellipse cx="121.218" cy="185.994" rx="0.534368" ry="0.537889" fill="white" stroke="#3D3D3C" stroke-width="0.8" stroke-linecap="round" stroke-linejoin="round"/>
<ellipse cx="125.683" cy="185.994" rx="0.534368" ry="0.537889" fill="white" stroke="#3D3D3C" stroke-width="0.8" stroke-linecap="round" stroke-linejoin="round"/>
<ellipse cx="130.147" cy="185.994" rx="0.534368" ry="0.537889" fill="white" stroke="#3D3D3C" stroke-width="0.8" stroke-linecap="round" stroke-linejoin="round"/>
<ellipse cx="134.612" cy="185.994" rx="0.534368" ry="0.537889" fill="white" stroke="#3D3D3C" stroke-width="0.8" stroke-linecap="round" stroke-linejoin="round"/>
</g>
<path fill-rule="evenodd" clip-rule="evenodd" d="M137.785 161.535C137.8 161.423 137.801 161.316 137.812 161.205C137.827 161.044 137.841 160.883 137.849 160.724C137.854 160.645 137.866 160.563 137.868 160.485C137.872 160.356 137.861 160.232 137.86 160.106C137.858 159.957 137.858 159.808 137.85 159.662C137.846 159.603 137.85 159.542 137.845 159.484C137.834 159.336 137.807 159.194 137.789 159.049C137.772 158.913 137.759 158.776 137.736 158.643C137.73 158.604 137.728 158.564 137.721 158.525C137.69 158.358 137.641 158.198 137.6 158.034C137.57 157.911 137.546 157.785 137.51 157.665C137.503 157.642 137.5 157.618 137.493 157.595C137.406 157.311 137.303 157.032 137.186 156.759L131.403 143.308C131.528 143.604 131.637 143.906 131.727 144.214C131.763 144.334 131.787 144.46 131.817 144.583C131.867 144.784 131.917 144.985 131.953 145.193C131.976 145.326 131.989 145.462 132.006 145.597C132.031 145.8 132.055 146.003 132.066 146.211C132.075 146.357 132.075 146.506 132.077 146.655C132.079 146.859 132.077 147.064 132.066 147.273C132.058 147.432 132.044 147.593 132.028 147.754C132.008 147.96 131.982 148.168 131.95 148.378C131.923 148.553 131.892 148.73 131.856 148.908C131.816 149.111 131.768 149.316 131.716 149.523C131.664 149.728 131.607 149.935 131.545 150.143C131.454 150.446 131.361 150.749 131.245 151.058C131.24 151.073 131.236 151.087 131.23 151.101C131.073 151.52 130.894 151.944 130.692 152.375C130.532 152.716 130.358 153.057 130.174 153.397C130.087 153.559 129.99 153.719 129.897 153.881C129.8 154.048 129.708 154.216 129.606 154.383C129.508 154.544 129.4 154.705 129.296 154.866C129.189 155.032 129.086 155.199 128.973 155.365C128.761 155.678 128.54 155.99 128.31 156.3C128.29 156.326 128.269 156.352 128.249 156.378C128.036 156.663 127.815 156.947 127.587 157.23C127.503 157.334 127.413 157.438 127.326 157.542C127.158 157.745 126.988 157.949 126.812 158.151C126.706 158.272 126.595 158.393 126.486 158.514C126.319 158.699 126.152 158.885 125.978 159.07C125.884 159.171 125.786 159.271 125.689 159.372C125.506 159.563 125.319 159.753 125.129 159.943C125.024 160.048 124.917 160.153 124.81 160.258C124.614 160.448 124.415 160.638 124.213 160.827C124.11 160.922 124.01 161.018 123.906 161.113C123.653 161.344 123.396 161.574 123.134 161.801C123.079 161.85 123.025 161.899 122.969 161.948C122.635 162.236 122.294 162.522 121.947 162.805C121.879 162.86 121.808 162.914 121.74 162.969C121.459 163.196 121.175 163.421 120.885 163.644C120.755 163.743 120.622 163.841 120.491 163.939C120.257 164.116 120.024 164.292 119.785 164.465C119.634 164.575 119.479 164.682 119.327 164.791C119.106 164.948 118.885 165.105 118.659 165.259C118.439 165.411 118.213 165.561 117.989 165.71C117.801 165.835 117.615 165.961 117.424 166.085C117.193 166.234 116.958 166.381 116.723 166.529C116.542 166.642 116.363 166.757 116.18 166.869C115.577 167.238 114.964 167.598 114.339 167.948C114.197 168.029 114.054 168.108 113.91 168.188C113.417 168.46 112.918 168.728 112.414 168.989C112.338 169.029 112.262 169.07 112.186 169.109C111.649 169.384 111.106 169.652 110.557 169.911C110.399 169.986 110.24 170.058 110.082 170.132C109.702 170.309 109.319 170.482 108.934 170.652C108.748 170.735 108.561 170.816 108.373 170.897C108.011 171.052 107.646 171.204 107.28 171.352C107.105 171.424 106.93 171.497 106.753 171.566C106.314 171.74 105.873 171.909 105.43 172.072C105.339 172.105 105.249 172.141 105.158 172.174C104.629 172.367 104.097 172.552 103.562 172.729C103.413 172.779 103.262 172.825 103.112 172.874C102.722 173 102.332 173.123 101.941 173.241C101.748 173.299 101.554 173.354 101.361 173.41C101 173.515 100.638 173.616 100.275 173.713C100.076 173.767 99.8761 173.819 99.6763 173.871C99.281 173.972 98.8854 174.068 98.4894 174.159C98.3221 174.198 98.1549 174.239 97.9875 174.276C97.4012 174.407 96.8148 174.527 96.2285 174.638C96.1314 174.656 96.0345 174.671 95.9374 174.688C95.3917 174.787 94.8466 174.875 94.3022 174.954C93.9951 174.999 93.6877 175.046 93.3812 175.085C92.7518 175.164 92.1351 175.227 91.5286 175.278C91.4047 175.289 91.2847 175.294 91.1618 175.303C90.7126 175.337 90.2698 175.363 89.8335 175.382C89.6552 175.389 89.4789 175.394 89.303 175.399C88.9331 175.409 88.5696 175.412 88.2099 175.411C88.0064 175.411 87.8019 175.411 87.6017 175.407C87.2297 175.399 86.8662 175.383 86.5059 175.363C86.3465 175.355 86.1831 175.35 86.0261 175.339C85.5157 175.303 85.0155 175.257 84.5302 175.197C84.4769 175.19 84.4272 175.18 84.3742 175.174C83.9435 175.118 83.523 175.053 83.1125 174.978C82.9582 174.95 82.8104 174.916 82.6591 174.886C82.3571 174.824 82.0583 174.761 81.7684 174.689C81.6042 174.648 81.4441 174.605 81.2838 174.561C81.016 174.488 80.7536 174.41 80.4967 174.329C80.3409 174.279 80.1861 174.228 80.0346 174.176C79.7781 174.086 79.5297 173.99 79.2852 173.891C79.1519 173.837 79.0157 173.786 78.8858 173.729C78.6031 173.606 78.332 173.474 78.0667 173.338C77.9889 173.298 77.9059 173.262 77.8298 173.221C77.4942 173.041 77.1738 172.851 76.8686 172.651C76.7891 172.599 76.7173 172.542 76.6399 172.489C76.4193 172.337 76.2036 172.181 76.0001 172.018C75.9005 171.939 75.8074 171.855 75.712 171.773C75.5424 171.626 75.3773 171.478 75.2211 171.324C75.1277 171.232 75.0376 171.138 74.9491 171.044C74.803 170.888 74.6646 170.727 74.5317 170.564C74.4531 170.467 74.3736 170.371 74.2997 170.271C74.1657 170.091 74.0432 169.906 73.9249 169.718C73.8688 169.629 73.8078 169.542 73.7553 169.451C73.5916 169.171 73.4445 168.881 73.315 168.584L79.0982 182.034C79.2278 182.332 79.3748 182.622 79.5385 182.902C79.591 182.993 79.6519 183.079 79.7081 183.168C79.8264 183.356 79.9489 183.542 80.0827 183.722C80.1568 183.821 80.2362 183.918 80.3149 184.014C80.4477 184.178 80.5861 184.338 80.7323 184.494C80.8208 184.589 80.9108 184.683 81.0041 184.774C81.1605 184.928 81.3254 185.077 81.495 185.223C81.5906 185.305 81.6836 185.389 81.7834 185.469C81.9865 185.631 82.2016 185.786 82.4218 185.938C82.4997 185.992 82.572 186.049 82.6521 186.102C82.9572 186.302 83.2773 186.492 83.6125 186.672C83.6896 186.713 83.7737 186.75 83.8524 186.79C84.1167 186.925 84.3867 187.057 84.6686 187.179C84.7986 187.236 84.9349 187.288 85.0686 187.342C85.3132 187.441 85.5615 187.537 85.8182 187.626C85.9696 187.679 86.124 187.729 86.2795 187.779C86.536 187.861 86.7981 187.938 87.0658 188.011C87.2268 188.055 87.3874 188.099 87.5522 188.14C87.8417 188.211 88.1396 188.275 88.441 188.336C88.5928 188.367 88.7409 188.4 88.8957 188.429C89.3075 188.504 89.73 188.569 90.163 188.625C90.2138 188.631 90.2615 188.641 90.3126 188.647C90.7982 188.707 91.2985 188.753 91.8092 188.789C91.9658 188.8 92.1285 188.805 92.2875 188.814C92.6487 188.833 93.0129 188.85 93.3859 188.857C93.5851 188.862 93.7883 188.861 93.9908 188.862C94.1917 188.862 94.387 188.869 94.5911 188.866C94.7537 188.864 94.9227 188.854 95.0872 188.849C95.2626 188.845 95.4382 188.839 95.6161 188.832C96.052 188.814 96.4949 188.788 96.9448 188.754C97.0678 188.745 97.1877 188.739 97.3118 188.728C97.3479 188.726 97.3825 188.724 97.4187 188.721C97.9903 188.672 98.5722 188.61 99.1643 188.536C99.3792 188.508 99.5943 188.48 99.8095 188.449C99.9013 188.437 99.9935 188.418 100.085 188.405C100.63 188.325 101.175 188.236 101.72 188.138C101.794 188.125 101.866 188.116 101.94 188.103C101.964 188.098 101.988 188.092 102.012 188.088C102.597 187.979 103.183 187.858 103.769 187.728C103.813 187.718 103.857 187.71 103.901 187.7C104.026 187.672 104.151 187.638 104.276 187.609C104.67 187.517 105.065 187.422 105.459 187.321C105.551 187.298 105.643 187.278 105.734 187.254C105.843 187.226 105.95 187.193 106.059 187.163C106.421 187.066 106.782 186.966 107.142 186.861C107.266 186.825 107.39 186.794 107.514 186.757C107.585 186.737 107.654 186.712 107.725 186.691C108.116 186.574 108.505 186.45 108.894 186.324C109.015 186.285 109.137 186.25 109.258 186.21C109.287 186.2 109.316 186.19 109.345 186.18C109.88 186.002 110.412 185.817 110.942 185.625C110.953 185.621 110.965 185.617 110.976 185.613C111.054 185.584 111.131 185.553 111.209 185.524C111.654 185.359 112.096 185.19 112.537 185.017C112.59 184.996 112.644 184.976 112.698 184.955C112.82 184.906 112.94 184.853 113.062 184.803C113.428 184.655 113.793 184.503 114.156 184.347C114.249 184.307 114.344 184.271 114.436 184.231C114.531 184.189 114.623 184.145 114.717 184.103C115.102 183.933 115.485 183.76 115.865 183.583C115.977 183.531 116.092 183.482 116.203 183.429C116.249 183.407 116.294 183.384 116.34 183.362C116.888 183.101 117.432 182.834 117.97 182.559C117.986 182.551 118.004 182.543 118.02 182.534C118.079 182.504 118.136 182.472 118.194 182.441C118.7 182.18 119.199 181.912 119.693 181.638C119.772 181.594 119.854 181.554 119.933 181.51C119.997 181.474 120.058 181.435 120.122 181.399C120.745 181.047 121.359 180.687 121.964 180.319C121.989 180.303 122.016 180.289 122.042 180.273C122.199 180.177 122.35 180.077 122.506 179.979C122.74 179.832 122.975 179.686 123.206 179.536C123.398 179.412 123.586 179.285 123.775 179.159C123.998 179.01 124.222 178.861 124.442 178.71C124.49 178.677 124.541 178.645 124.588 178.612C124.765 178.49 124.936 178.365 125.11 178.241C125.262 178.133 125.417 178.025 125.568 177.916C125.807 177.742 126.04 177.566 126.274 177.39C126.405 177.291 126.538 177.194 126.668 177.095C126.954 176.875 127.234 176.652 127.512 176.428C127.584 176.37 127.659 176.313 127.731 176.255C128.068 175.98 128.399 175.703 128.724 175.423C128.734 175.415 128.743 175.407 128.752 175.398C128.808 175.35 128.862 175.301 128.917 175.252C129.179 175.024 129.436 174.795 129.689 174.563C129.793 174.468 129.893 174.373 129.996 174.277C130.198 174.088 130.397 173.899 130.593 173.708C130.7 173.604 130.806 173.499 130.912 173.394C131.102 173.204 131.289 173.013 131.473 172.821C131.569 172.721 131.667 172.621 131.761 172.52C131.803 172.476 131.846 172.433 131.887 172.389C132.018 172.249 132.141 172.107 132.267 171.966C132.377 171.844 132.489 171.723 132.596 171.601C132.771 171.4 132.938 171.198 133.106 170.996C133.194 170.891 133.285 170.786 133.37 170.68C133.596 170.401 133.813 170.121 134.023 169.84C134.046 169.81 134.071 169.78 134.093 169.75C134.315 169.451 134.529 169.152 134.734 168.851C134.742 168.839 134.748 168.828 134.756 168.816C134.869 168.65 134.972 168.483 135.079 168.316C135.183 168.155 135.291 167.995 135.389 167.833C135.491 167.666 135.583 167.499 135.68 167.331C135.767 167.18 135.859 167.03 135.942 166.878C135.947 166.868 135.952 166.858 135.957 166.848C136.141 166.508 136.314 166.167 136.475 165.825C136.562 165.639 136.646 165.453 136.725 165.269C136.828 165.028 136.924 164.789 137.013 164.552C137.019 164.537 137.023 164.523 137.028 164.509C137.106 164.3 137.18 164.093 137.247 163.887C137.279 163.788 137.298 163.693 137.328 163.594C137.391 163.385 137.447 163.179 137.499 162.973C137.525 162.868 137.563 162.76 137.587 162.655C137.609 162.555 137.619 162.459 137.639 162.359C137.675 162.18 137.706 162.003 137.733 161.828C137.748 161.731 137.773 161.631 137.785 161.535Z" stroke="#3D3D3C" stroke-width="0.8" stroke-linecap="round" stroke-linejoin="round"/>
<path d="M103.948 154.95C103.871 155.933 103.411 156.846 102.668 157.494Z" fill="#F5F6F7"/>
<path d="M103.948 154.95C103.871 155.933 103.411 156.846 102.668 157.494" stroke="#3D3D3C" stroke-width="0.8" stroke-linecap="round" stroke-linejoin="round"/>
<path d="M67.1963 34.0413L32.981 54.4208L27.4874 21.3981L61.7026 1.01855L67.1963 34.0413V34.0413Z" fill="white" stroke="#3D3D3C" stroke-width="0.8" stroke-linecap="round" stroke-linejoin="round"/>
<path d="M67.1963 34.041L92.9639 53.7449L58.7487 74.1245L32.981 54.4205L67.1963 34.041V34.041Z" fill="#FFCCC7"/>
<mask id="mask12_38_2621" style="mask-type:alpha" maskUnits="userSpaceOnUse" x="32" y="34" width="61" height="41">
<path fill-rule="evenodd" clip-rule="evenodd" d="M67.1963 34.041L92.9639 53.7449L58.7487 74.1245L32.981 54.4205L67.1963 34.041V34.041Z" fill="white"/>
</mask>
<g mask="url(#mask12_38_2621)">
<path d="M19.0712 74.367H106.874Z" fill="#F5F6F7"/>
<path d="M19.0712 74.367H106.874" stroke="#3D3D3C" stroke-width="0.8" stroke-linecap="round" stroke-linejoin="round"/>
<path d="M19.0712 70.9861H106.874Z" fill="#F5F6F7"/>
<path d="M19.0712 70.9861H106.874" stroke="#3D3D3C" stroke-width="0.8" stroke-linecap="round" stroke-linejoin="round"/>
<path d="M19.0712 67.6057H106.874Z" fill="#F5F6F7"/>
<path d="M19.0712 67.6057H106.874" stroke="#3D3D3C" stroke-width="0.8" stroke-linecap="round" stroke-linejoin="round"/>
<path d="M19.0712 64.2249H106.874Z" fill="#F5F6F7"/>
<path d="M19.0712 64.2249H106.874" stroke="#3D3D3C" stroke-width="0.8" stroke-linecap="round" stroke-linejoin="round"/>
<path d="M19.0712 60.8445H106.874Z" fill="#F5F6F7"/>
<path d="M19.0712 60.8445H106.874" stroke="#3D3D3C" stroke-width="0.8" stroke-linecap="round" stroke-linejoin="round"/>
<path d="M19.0712 57.4636H106.874Z" fill="#F5F6F7"/>
<path d="M19.0712 57.4636H106.874" stroke="#3D3D3C" stroke-width="0.8" stroke-linecap="round" stroke-linejoin="round"/>
<path d="M19.0712 54.0833H106.874Z" fill="#F5F6F7"/>
<path d="M19.0712 54.0833H106.874" stroke="#3D3D3C" stroke-width="0.8" stroke-linecap="round" stroke-linejoin="round"/>
<path d="M19.0712 50.7024H106.874Z" fill="#F5F6F7"/>
<path d="M19.0712 50.7024H106.874" stroke="#3D3D3C" stroke-width="0.8" stroke-linecap="round" stroke-linejoin="round"/>
<path d="M19.0712 47.3216H106.874Z" fill="#F5F6F7"/>
<path d="M19.0712 47.3216H106.874" stroke="#3D3D3C" stroke-width="0.8" stroke-linecap="round" stroke-linejoin="round"/>
<path d="M19.0712 43.9412H106.874Z" fill="#F5F6F7"/>
<path d="M19.0712 43.9412H106.874" stroke="#3D3D3C" stroke-width="0.8" stroke-linecap="round" stroke-linejoin="round"/>
<path d="M19.0712 40.5608H106.874Z" fill="#F5F6F7"/>
<path d="M19.0712 40.5608H106.874" stroke="#3D3D3C" stroke-width="0.8" stroke-linecap="round" stroke-linejoin="round"/>
<path d="M19.0712 37.18H106.874Z" fill="#F5F6F7"/>
<path d="M19.0712 37.18H106.874" stroke="#3D3D3C" stroke-width="0.8" stroke-linecap="round" stroke-linejoin="round"/>
<path d="M19.0712 33.7996H106.874Z" fill="#F5F6F7"/>
<path d="M19.0712 33.7996H106.874" stroke="#3D3D3C" stroke-width="0.8" stroke-linecap="round" stroke-linejoin="round"/>
</g>
<path fill-rule="evenodd" clip-rule="evenodd" d="M67.1963 34.041L92.9639 53.7449L58.7487 74.1245L32.981 54.4205L67.1963 34.041V34.041Z" stroke="#3D3D3C" stroke-width="0.8" stroke-linecap="round" stroke-linejoin="round"/>
<path d="M61.7026 1.01855L87.4703 20.7225L92.9639 53.7452L67.1963 34.0413L61.7026 1.01855V1.01855Z" fill="#ECEDEE" stroke="#3D3D3C" stroke-width="0.8" stroke-linecap="round" stroke-linejoin="round"/>
<path d="M49.1726 22.1841C47.1681 25.2157 44.9025 28.0663 42.4017 30.7034Z" fill="#F5F6F7"/>
<path d="M49.1726 22.1841C47.1681 25.2157 44.9025 28.0663 42.4017 30.7034" stroke="#3D3D3C" stroke-width="0.8" stroke-linecap="round" stroke-linejoin="round"/>
</svg>
